<?xml version="1.0" encoding="UTF-8" standalone="no"?>
<!-- Created with Inkscape (http://www.inkscape.org/) -->

<svg
   width="210mm"
   height="297mm"
   viewBox="0 0 210 297"
   version="1.1"
   id="svg1"
   xml:space="preserve"
   inkscape:version="1.4.2 (ebf0e940, 2025-05-08)"
   sodipodi:docname="drawing.svg"
   xmlns:inkscape="http://www.inkscape.org/namespaces/inkscape"
   xmlns:sodipodi="http://sodipodi.sourceforge.net/DTD/sodipodi-0.dtd"
   xmlns="http://www.w3.org/2000/svg"
   xmlns:svg="http://www.w3.org/2000/svg"><sodipodi:namedview
     id="namedview1"
     pagecolor="#ffffff"
     bordercolor="#000000"
     borderopacity="0.25"
     inkscape:showpageshadow="2"
     inkscape:pageopacity="0.0"
     inkscape:pagecheckerboard="0"
     inkscape:deskcolor="#d1d1d1"
     inkscape:document-units="mm"
     inkscape:zoom="0.45254834"
     inkscape:cx="1000.998"
     inkscape:cy="656.28348"
     inkscape:window-width="1680"
     inkscape:window-height="925"
     inkscape:window-x="0"
     inkscape:window-y="31"
     inkscape:window-maximized="1"
     inkscape:current-layer="layer1"><inkscape:page
       x="0"
       y="0"
       width="210"
       height="297"
       id="page4"
       margin="0"
       bleed="0" /><inkscape:page
       x="220"
       y="0"
       width="210"
       height="297"
       id="page5"
       margin="0"
       bleed="0" /></sodipodi:namedview><defs
     id="defs1" /><g
     inkscape:label="Layer 1"
     inkscape:groupmode="layer"
     id="layer1"><path
       style="fill:#000000;stroke-width:0.919301"
       d="m 135.97682,268.22654 v -7.55351 l 1.15535,0.074 c 0.97387,0.0624 1.16721,0.15739 1.23082,0.60415 l 0.0755,0.52998 0.83992,-0.56996 c 2.62772,-1.78322 6.48796,-0.32044 7.5439,2.85869 0.81734,2.46083 -0.0692,5.5722 -1.91235,6.71133 -1.83199,1.13222 -4.31236,1.15099 -5.80971,0.0439 l -0.69105,-0.51092 v 2.68282 2.68283 h -1.21616 -1.21616 z m 7.23274,0.83737 c 1.86564,-1.18122 1.79968,-4.61599 -0.11273,-5.86882 -0.83261,-0.54544 -2.43538,-0.51836 -3.31192,0.0561 -2.2588,1.48002 -1.63745,5.60464 0.94502,6.27306 0.65677,0.16999 1.82741,-0.0473 2.4796,-0.46021 z m -95.218122,4.51925 c -2.970869,-0.31228 -4.770631,-1.76837 -5.418213,-4.38357 -0.176329,-0.71209 -0.24655,-3.1011 -0.196604,-6.68886 l 0.07769,-5.58114 0.748273,-1.31919 c 0.572644,-1.00957 1.057902,-1.49482 2.067467,-2.06748 l 1.319194,-0.74827 5.398304,-0.0809 c 6.375021,-0.0956 7.590443,0.0836 9.051156,1.33392 1.959071,1.6769 2.079158,2.13877 2.172198,8.35459 0.09158,6.11807 -0.0851,7.45439 -1.186622,8.97498 -1.110798,1.53343 -2.308545,2.01294 -5.584162,2.2356 -3.366076,0.22881 -6.079791,0.21927 -8.448684,-0.0296 z m 10.254098,-1.92772 c 1.280126,-0.2969 2.108389,-0.94044 2.694372,-2.09349 0.443893,-0.87348 0.486288,-1.43616 0.484467,-6.42994 -0.0019,-5.21041 -0.0283,-5.52211 -0.550545,-6.50319 -0.91031,-1.71002 -1.857577,-2.03526 -6.356497,-2.18234 -5.006686,-0.1637 -7.770957,0.14531 -8.882174,0.99287 -1.329874,1.01435 -1.478225,1.79857 -1.478225,7.81428 0,4.86985 0.04375,5.43717 0.486464,6.30832 0.566606,1.11491 1.42892,1.80998 2.583801,2.08266 1.148022,0.27104 9.859459,0.2796 11.018337,0.0107 z m -7.13049,-3.28225 c -0.587691,-0.19018 -1.489779,-0.75712 -2.004642,-1.25988 -3.249382,-3.17293 -1.503322,-8.72852 2.907461,-9.25091 3.462267,-0.41006 6.12488,1.94524 6.12488,5.41796 0,3.63687 -3.558397,6.21557 -7.027699,5.09283 z m 3.80695,-2.28058 c 0.964574,-0.68686 1.595894,-2.26695 1.39079,-3.48094 -0.672982,-3.98334 -6.432168,-3.83555 -7.056651,0.18108 -0.194163,1.24885 0.66194,2.90217 1.838961,3.55142 1.072783,0.59175 2.802231,0.47806 3.8269,-0.25156 z m 2.630045,-7.721 c -0.771148,-0.77114 -0.194538,-2.05009 0.92428,-2.05009 0.717962,0 1.125814,0.44058 1.125814,1.21615 0,0.34782 -0.131345,0.76375 -0.291879,0.9243 -0.409297,0.40928 -1.304578,0.36327 -1.758215,-0.0904 z m 35.129575,13.23615 c -2.015476,-0.58558 -2.432315,-1.53585 -2.432315,-5.54491 v -3.17409 h -0.85131 c -0.846806,0 -0.851309,-0.006 -0.851309,-1.09453 0,-1.08876 0.0045,-1.09456 0.851309,-1.09456 h 0.85131 v -1.33775 -1.33777 h 1.216159 1.216156 v 1.33777 1.33775 h 1.45939 1.459388 v 1.09456 1.09453 h -1.459388 -1.45939 v 2.91878 c 0,2.59447 0.05406,2.97283 0.486464,3.40525 0.538034,0.53803 1.241034,0.62043 1.969063,0.2308 0.414654,-0.22191 0.524887,-0.1427 0.835321,0.60026 0.445607,1.0665 0.446402,1.05105 -0.06803,1.32121 -0.725282,0.38091 -2.331027,0.50184 -3.222818,0.2427 z m 21.282754,0.12389 c -2.29683,-0.55829 -3.33872,-1.33758 -4.1673,-3.11701 -1.81286,-3.89305 0.7693,-8.0087 5.0186,-7.99901 3.60791,0.007 5.70149,2.04866 5.70149,5.55676 0,3.23521 -1.74299,5.18162 -4.97178,5.55196 -0.60201,0.0689 -1.31346,0.0723 -1.58101,0.007 z m 2.69789,-2.63273 c 0.96167,-0.63014 1.38153,-1.50697 1.40206,-2.92815 0.0227,-1.56778 -0.50213,-2.44174 -1.87633,-3.12467 -1.20677,-0.5997 -2.42746,-0.367 -3.45262,0.65817 -1.1158,1.1158 -1.30655,2.48413 -0.55695,3.99512 0.93146,1.87757 2.84345,2.47433 4.48384,1.39953 z m 9.82853,2.52486 c -3.9339,-0.77796 -5.63241,-5.52936 -3.18459,-8.90847 1.93626,-2.67293 6.50928,-2.87848 8.81195,-0.39608 1.06817,1.15154 1.42635,2.11915 1.42635,3.85316 0,1.73403 -0.35818,2.70163 -1.42635,3.85319 -1.30808,1.41018 -3.47136,2.02457 -5.62736,1.5982 z m 2.69952,-2.32734 c 1.72302,-0.68943 2.36897,-2.84561 1.45528,-4.85773 -0.37145,-0.81801 -0.66851,-1.08519 -1.60355,-1.44227 -1.0327,-0.39441 -1.24761,-0.40347 -2.14557,-0.0906 -1.35536,0.47229 -2.1083,1.6166 -2.1083,3.20415 0,1.55029 0.58967,2.56225 1.82423,3.13062 1.20067,0.55276 1.32889,0.55553 2.57791,0.0558 z m 20.41435,2.3046 c -0.74884,-0.27824 -0.97133,-0.61836 -0.97608,-1.49212 -0.007,-1.41437 1.10169,-2.20055 2.25116,-1.59531 0.72754,0.38309 0.89898,0.68172 0.9034,1.57359 0.006,1.16308 -1.08414,1.92044 -2.17848,1.51384 z m 8.04058,0.0258 c -1.35597,-0.2694 -2.73477,-1.17371 -3.37775,-2.21532 -2.5056,-4.05907 0.0857,-8.82407 4.78898,-8.80582 2.38201,0.008 4.18044,1.10399 5.22905,3.18303 0.51183,1.01481 0.5212,3.74173 0.0164,4.80533 -1.12889,2.37896 -3.80682,3.599 -6.65677,3.03278 z m 2.79481,-2.38861 c 2.55501,-1.16044 2.40287,-5.11422 -0.23924,-6.21666 -1.04366,-0.43547 -1.22369,-0.44563 -2.15372,-0.12161 -1.37326,0.47844 -2.12529,1.61429 -2.12529,3.21 0,1.5503 0.58967,2.56225 1.82424,3.13062 1.21103,0.55752 1.46175,0.55731 2.69401,-0.004 z m -88.67634,-4.89014 v -7.29694 h 5.121186 5.121188 l -0.07413,1.15534 -0.07413,1.15534 -3.770088,0.0426 -3.770088,0.0426 v 2.14652 2.14652 l 3.344433,0.0676 3.344432,0.0676 v 1.08769 1.08767 h -3.405244 -3.405241 v 2.79716 2.79718 h -1.216166 -1.216158 z m 12.404804,1.82423 v -5.4727 h 1.216157 1.216158 v 5.4727 5.47271 h -1.216158 -1.216157 z m 14.350659,-1.83694 v -7.30966 l 1.256912,0.0734 1.256925,0.0736 0.0355,3.28362 c 0.0195,1.80601 0.056,4.56972 0.0808,6.14161 l 0.0453,2.85795 h 3.52684 3.52687 v 1.09455 1.09455 h -4.86463 -4.864629 z m 68.591287,-0.35215 v -7.6618 h 1.21614 1.21616 v 4.67785 4.67787 l 2.49729,-2.48878 2.49727,-2.48876 h 1.57177 1.57178 l -2.1232,2.13308 c -1.16775,1.17321 -2.1232,2.25791 -2.1232,2.41047 0,0.15256 0.41774,0.80711 0.9283,1.45457 0.5106,0.64747 1.5547,2.02547 2.32029,3.06224 l 1.39196,1.88505 h -1.54934 -1.54936 l -0.76467,-1.06479 c -0.42057,-0.58563 -1.21664,-1.63659 -1.76906,-2.33544 l -1.00439,-1.27067 -0.94772,0.92543 c -0.88604,0.8652 -0.94772,1.01715 -0.94772,2.33545 v 1.41002 h -1.21616 -1.21614 z m -82.400397,-5.23918 c -1.089893,-0.43772 -1.173204,-1.91366 -0.146008,-2.58671 1.201307,-0.78713 2.790106,0.40343 2.29083,1.71663 -0.18735,0.49277 -1.208164,1.2237 -1.546856,1.10759 -0.02474,-0.007 -0.29382,-0.11535 -0.597966,-0.23751 z"
       id="path2"
       sodipodi:nodetypes="ccsscssssccccccsscsssssscsscsssssssssssssssssssssssssssssssssssscssscccccccccccccssssssccscsscsssssssssssssssssssscscscccscsccccsssscccccccccccccccccccccccccccccccccccccsccccccccccccccccccsssscccsscssccccsssc" /><path
       style="fill:#000000;stroke-width:1.02754"
       d="m 123.80546,60.665852 c -6.76484,-1.041318 -11.49281,-7.928631 -10.30268,-15.008032 1.08376,-6.446551 6.16338,-10.652904 12.82915,-10.623583 4.31127,0.01896 8.09456,1.944752 12.52563,6.375812 l 2.38568,2.385667 2.81836,-2.773219 c 4.46307,-4.391571 7.66503,-5.960306 12.17617,-5.965461 7.6548,-0.0088 12.77796,5.140747 12.77796,12.843669 0,3.907608 -0.99206,6.438826 -3.57972,9.133595 -3.77637,3.93269 -9.72877,4.90782 -15.01036,2.459016 -2.24081,-1.038941 -5.47461,-3.555917 -7.63303,-5.941054 l -1.50368,-1.661645 -2.78874,2.700586 c -1.53381,1.485318 -3.51029,3.175332 -4.39219,3.755573 -3.01222,1.981844 -6.86271,2.848574 -10.30255,2.319076 z m 6.33268,-6.040021 c 1.34079,-0.637258 2.48868,-1.550791 4.75773,-3.786359 l 2.99059,-2.946455 -3.01605,-2.948784 c -3.82017,-3.734956 -5.72386,-4.783125 -8.65335,-4.764565 -1.431,0.009 -2.25656,0.172253 -3.22109,0.636704 -5.58609,2.689879 -5.67382,11.18559 -0.14501,14.044645 2.10515,1.08861 4.67649,1.005623 7.28718,-0.235186 z m 29.03814,0.45653 c 2.79099,-1.149351 4.47679,-3.907039 4.44897,-7.277773 -0.0334,-4.039911 -2.23378,-6.773602 -6.07291,-7.544612 -1.93681,-0.388966 -4.24527,0.170682 -6.41928,1.556256 -1.70017,1.083586 -6.31389,5.529654 -6.31389,6.084473 0,0.528184 4.5649,4.956949 6.25304,6.066564 2.63061,1.729095 5.61567,2.139832 8.10407,1.115092 z M 18.538366,47.900705 V 35.394627 h 9.9233 9.923299 v 2.310905 2.310906 h -6.941343 -6.941343 l 0.07658,3.194487 0.07658,3.194487 6.049138,0.07317 6.049137,0.07317 v 2.305703 2.305706 h -6.117111 -6.117099 v 4.621811 4.621811 h -2.99059 -2.990583 z m 27.187121,0 V 35.394627 h 2.990581 2.990595 v 12.506078 12.506077 h -2.990595 -2.990581 z m 20.934087,2.310906 V 40.016438 h -4.214005 -4.214004 v -2.310906 -2.310905 h 11.418591 11.418591 v 2.303824 2.303825 l -4.146043,0.07505 -4.146031,0.07505 -0.07128,10.127204 -0.07129,10.127203 H 69.646845 66.659574 Z M 92.348013,47.900705 V 35.394627 h 2.990583 2.990571 V 45.44903 55.503433 l 6.592903,0.0728 6.59288,0.07281 0.0784,2.378872 0.0786,2.378873 h -9.66194 -9.662014 z m 81.289517,-0.01893 V 35.356789 l 7.68036,0.09395 c 8.80523,0.107715 9.60414,0.274748 12.11618,2.53328 3.88368,3.491771 3.4749,10.476609 -0.77785,13.290942 -2.22785,1.474328 -3.81024,1.840243 -8.61961,1.993242 l -4.41791,0.140544 v 3.499019 3.499019 h -2.99059 -2.99058 z m 13.61647,0.251806 c 2.63332,-0.788961 3.63998,-3.909824 2.0459,-6.342707 -0.76536,-1.168077 -2.16901,-1.564901 -6.06063,-1.7134 l -3.62057,-0.138156 v 4.252561 4.252559 h 3.29888 c 1.81437,0 3.76576,-0.139886 4.33642,-0.310857 z"
       id="path2-3"
       sodipodi:nodetypes="sssscsssssscssssscscssssssssssccccccccccccccccccccccccccccccccccccccccccccccccccccccccccccccssssccccccssscccss" /><text
       xml:space="preserve"
       style="font-style:normal;font-variant:normal;font-weight:600;font-stretch:normal;font-size:7.05556px;line-height:1.2;font-family:Montserrat;-inkscape-font-specification:'Montserrat, Semi-Bold';font-variant-ligatures:normal;font-variant-caps:normal;font-variant-numeric:normal;font-variant-east-asian:normal;text-align:start;text-decoration-color:#000000;letter-spacing:4.58787px;word-spacing:2.36456px;writing-mode:lr-tb;direction:ltr;text-anchor:start;fill:#1a1a1a;stroke-width:1.25081;paint-order:stroke markers fill"
       x="32.713326"
       y="73.533455"
       id="text2"><tspan
         sodipodi:role="line"
         id="tspan2"
         x="32.713326"
         y="73.533455"
         style="font-style:normal;font-variant:normal;font-weight:600;font-stretch:normal;font-size:7.05556px;font-family:Montserrat;-inkscape-font-specification:'Montserrat, Semi-Bold';font-variant-ligatures:normal;font-variant-caps:normal;font-variant-numeric:normal;font-variant-east-asian:normal;letter-spacing:4.58787px;fill:#1a1a1a;stroke-width:1.25081">FITNES IN MOTION</tspan></text><text
       xml:space="preserve"
       style="font-style:normal;font-variant:normal;font-weight:500;font-stretch:normal;font-size:27.452px;line-height:1.2;font-family:Montserrat;-inkscape-font-specification:'Montserrat, Medium';font-variant-ligatures:normal;font-variant-caps:normal;font-variant-numeric:normal;font-variant-east-asian:normal;text-align:start;text-decoration-color:#000000;letter-spacing:1.31118px;word-spacing:9.20011px;writing-mode:lr-tb;direction:ltr;text-anchor:start;fill:#1a1a1a;stroke-width:4.86669;paint-order:stroke markers fill"
       x="105.86043"
       y="138.34734"
       id="text2-9"><tspan
         sodipodi:role="line"
         id="tspan2-3"
         x="105.86043"
         y="138.34734"
         style="font-style:normal;font-variant:normal;font-weight:500;font-stretch:normal;font-size:27.452px;font-family:Montserrat;-inkscape-font-specification:'Montserrat, Medium';font-variant-ligatures:normal;font-variant-caps:normal;font-variant-numeric:normal;font-variant-east-asian:normal;text-align:center;letter-spacing:1.31118px;text-anchor:middle;fill:#1a1a1a;stroke-width:4.86669">ENTRENÁ</tspan><tspan
         sodipodi:role="line"
         x="105.86043"
         y="171.28973"
         style="font-style:normal;font-variant:normal;font-weight:500;font-stretch:normal;font-size:27.452px;font-family:Montserrat;-inkscape-font-specification:'Montserrat, Medium';font-variant-ligatures:normal;font-variant-caps:normal;font-variant-numeric:normal;font-variant-east-asian:normal;text-align:center;letter-spacing:1.31118px;text-anchor:middle;fill:#1a1a1a;stroke-width:4.86669"
         id="tspan3">GIRÁ</tspan><tspan
         sodipodi:role="line"
         x="106.51601"
         y="204.23213"
         style="font-style:normal;font-variant:normal;font-weight:500;font-stretch:normal;font-size:27.452px;font-family:Montserrat;-inkscape-font-specification:'Montserrat, Medium';font-variant-ligatures:normal;font-variant-caps:normal;font-variant-numeric:normal;font-variant-east-asian:normal;text-align:center;letter-spacing:1.31118px;text-anchor:middle;fill:#1a1a1a;stroke-width:4.86669"
         id="tspan4">REPETÍ</tspan></text><text
       xml:space="preserve"
       style="font-style:normal;font-variant:normal;font-weight:500;font-stretch:normal;font-size:15.08px;line-height:1.2;font-family:Montserrat;-inkscape-font-specification:'Montserrat, Medium';font-variant-ligatures:normal;font-variant-caps:normal;font-variant-numeric:normal;font-variant-east-asian:normal;text-align:start;text-decoration-color:#000000;letter-spacing:0.720263px;word-spacing:5.05384px;writing-mode:lr-tb;direction:ltr;text-anchor:start;fill:#1a1a1a;stroke-width:2.67339;paint-order:stroke markers fill"
       x="324.87936"
       y="54.206059"
       id="text2-9-7"><tspan
         sodipodi:role="line"
         x="324.87936"
         y="54.206059"
         style="font-style:normal;font-variant:normal;font-weight:500;font-stretch:normal;font-size:15.08px;font-family:Montserrat;-inkscape-font-specification:'Montserrat, Medium';font-variant-ligatures:normal;font-variant-caps:normal;font-variant-numeric:normal;font-variant-east-asian:normal;text-align:center;letter-spacing:0.720263px;text-anchor:middle;fill:#1a1a1a;stroke-width:2.67339"
         id="tspan13">TALLE:</tspan><tspan
         sodipodi:role="line"
         x="324.87936"
         y="72.302063"
         style="font-style:normal;font-variant:normal;font-weight:500;font-stretch:normal;font-size:15.08px;font-family:Montserrat;-inkscape-font-specification:'Montserrat, Medium';font-variant-ligatures:normal;font-variant-caps:normal;font-variant-numeric:normal;font-variant-east-asian:normal;text-align:center;letter-spacing:0.720263px;text-anchor:middle;fill:#1a1a1a;stroke-width:2.67339"
         id="tspan17" /><tspan
         sodipodi:role="line"
         x="324.87936"
         y="90.398064"
         style="font-style:normal;font-variant:normal;font-weight:500;font-stretch:normal;font-size:15.08px;font-family:Montserrat;-inkscape-font-specification:'Montserrat, Medium';font-variant-ligatures:normal;font-variant-caps:normal;font-variant-numeric:normal;font-variant-east-asian:normal;text-align:center;letter-spacing:0.720263px;text-anchor:middle;fill:#1a1a1a;stroke-width:2.67339"
         id="tspan6" /><tspan
         sodipodi:role="line"
         x="324.87936"
         y="108.49406"
         style="font-style:normal;font-variant:normal;font-weight:500;font-stretch:normal;font-size:15.08px;font-family:Montserrat;-inkscape-font-specification:'Montserrat, Medium';font-variant-ligatures:normal;font-variant-caps:normal;font-variant-numeric:normal;font-variant-east-asian:normal;text-align:center;letter-spacing:0.720263px;text-anchor:middle;fill:#1a1a1a;stroke-width:2.67339"
         id="tspan14">PRECIO:</tspan><tspan
         sodipodi:role="line"
         x="324.87936"
         y="126.59007"
         style="font-style:normal;font-variant:normal;font-weight:500;font-stretch:normal;font-size:15.08px;font-family:Montserrat;-inkscape-font-specification:'Montserrat, Medium';font-variant-ligatures:normal;font-variant-caps:normal;font-variant-numeric:normal;font-variant-east-asian:normal;text-align:center;letter-spacing:0.720263px;text-anchor:middle;fill:#1a1a1a;stroke-width:2.67339"
         id="tspan18" /><tspan
         sodipodi:role="line"
         x="324.87936"
         y="144.68605"
         style="font-style:normal;font-variant:normal;font-weight:500;font-stretch:normal;font-size:15.08px;font-family:Montserrat;-inkscape-font-specification:'Montserrat, Medium';font-variant-ligatures:normal;font-variant-caps:normal;font-variant-numeric:normal;font-variant-east-asian:normal;text-align:center;letter-spacing:0.720263px;text-anchor:middle;fill:#1a1a1a;stroke-width:2.67339"
         id="tspan8" /><tspan
         sodipodi:role="line"
         x="324.87936"
         y="162.78206"
         style="font-style:normal;font-variant:normal;font-weight:500;font-stretch:normal;font-size:15.08px;font-family:Montserrat;-inkscape-font-specification:'Montserrat, Medium';font-variant-ligatures:normal;font-variant-caps:normal;font-variant-numeric:normal;font-variant-east-asian:normal;text-align:center;letter-spacing:0.720263px;text-anchor:middle;fill:#1a1a1a;stroke-width:2.67339"
         id="tspan15">WHATSAPP:</tspan><tspan
         sodipodi:role="line"
         x="324.87936"
         y="180.87805"
         style="font-style:normal;font-variant:normal;font-weight:500;font-stretch:normal;font-size:15.08px;font-family:Montserrat;-inkscape-font-specification:'Montserrat, Medium';font-variant-ligatures:normal;font-variant-caps:normal;font-variant-numeric:normal;font-variant-east-asian:normal;text-align:center;letter-spacing:0.720263px;text-anchor:middle;fill:#1a1a1a;stroke-width:2.67339"
         id="tspan19" /><tspan
         sodipodi:role="line"
         x="324.87936"
         y="198.97406"
         style="font-style:normal;font-variant:normal;font-weight:500;font-stretch:normal;font-size:15.08px;font-family:Montserrat;-inkscape-font-specification:'Montserrat, Medium';font-variant-ligatures:normal;font-variant-caps:normal;font-variant-numeric:normal;font-variant-east-asian:normal;text-align:center;letter-spacing:0.720263px;text-anchor:middle;fill:#1a1a1a;stroke-width:2.67339"
         id="tspan20" /><tspan
         sodipodi:role="line"
         x="324.87936"
         y="217.07005"
         style="font-style:normal;font-variant:normal;font-weight:500;font-stretch:normal;font-size:15.08px;font-family:Montserrat;-inkscape-font-specification:'Montserrat, Medium';font-variant-ligatures:normal;font-variant-caps:normal;font-variant-numeric:normal;font-variant-east-asian:normal;text-align:center;letter-spacing:0.720263px;text-anchor:middle;fill:#1a1a1a;stroke-width:2.67339"
         id="tspan10" /><tspan
         sodipodi:role="line"
         x="324.87936"
         y="235.16606"
         style="font-style:normal;font-variant:normal;font-weight:500;font-stretch:normal;font-size:15.08px;font-family:Montserrat;-inkscape-font-specification:'Montserrat, Medium';font-variant-ligatures:normal;font-variant-caps:normal;font-variant-numeric:normal;font-variant-east-asian:normal;text-align:center;letter-spacing:0.720263px;text-anchor:middle;fill:#1a1a1a;stroke-width:2.67339"
         id="tspan16">INVENTARIO:</tspan><tspan
         sodipodi:role="line"
         x="324.87936"
         y="253.26207"
         style="font-style:normal;font-variant:normal;font-weight:500;font-stretch:normal;font-size:15.08px;font-family:Montserrat;-inkscape-font-specification:'Montserrat, Medium';font-variant-ligatures:normal;font-variant-caps:normal;font-variant-numeric:normal;font-variant-east-asian:normal;text-align:center;letter-spacing:0.720263px;text-anchor:middle;fill:#1a1a1a;stroke-width:2.67339"
         id="tspan12" /></text></g></svg>
