<?xml version="1.0" encoding="UTF-8" standalone="no"?>
<!-- Created with Inkscape (http://www.inkscape.org/) -->

<svg
   width="500"
   height="500"
   viewBox="0 0 132.29166 132.29167"
   version="1.1"
   id="svg1"
   xml:space="preserve"
   inkscape:version="1.4.2 (ebf0e940, 2025-05-08)"
   sodipodi:docname="favicon.svg"
   xmlns:inkscape="http://www.inkscape.org/namespaces/inkscape"
   xmlns:sodipodi="http://sodipodi.sourceforge.net/DTD/sodipodi-0.dtd"
   xmlns="http://www.w3.org/2000/svg"
   xmlns:svg="http://www.w3.org/2000/svg"><sodipodi:namedview
     id="namedview1"
     pagecolor="#ffffff"
     bordercolor="#000000"
     borderopacity="0.25"
     inkscape:showpageshadow="2"
     inkscape:pageopacity="0.0"
     inkscape:pagecheckerboard="0"
     inkscape:deskcolor="#d1d1d1"
     inkscape:document-units="mm"
     inkscape:zoom="0.70710678"
     inkscape:cx="221.32442"
     inkscape:cy="295.57064"
     inkscape:window-width="1680"
     inkscape:window-height="925"
     inkscape:window-x="0"
     inkscape:window-y="31"
     inkscape:window-maximized="0"
     inkscape:current-layer="layer1"
     inkscape:lockguides="true" /><defs
     id="defs1" /><g
     inkscape:label="Layer 1"
     inkscape:groupmode="layer"
     id="layer1"><path
       id="rect6"
       style="fill:#ff00ff;fill-opacity:1;stroke:none;stroke-width:0.499999;paint-order:stroke markers fill"
       d="M 66.04248 1.8706868 C 44.256176 1.8706868 25.072477 12.619441 13.483415 29.12432 L 23.112801 25.391732 L 23.112801 44.150277 L 54.075769 32.148425 L 54.075769 41.549919 L 23.112801 53.55177 L 23.112801 81.805859 L 54.064917 69.807625 L 54.064917 79.209635 L 23.112801 91.207353 L 23.112801 114.192 C 34.467539 124.39471 49.505287 130.58789 66.04248 130.58789 C 83.01104 130.58789 98.40047 124.06781 109.85273 113.38584 L 109.85273 53.476839 L 79.28715 41.628984 L 79.28715 115.89525 L 66.677067 111.00718 L 66.685852 27.343551 L 122.11089 48.826477 L 122.46281 48.826477 L 122.46281 48.962903 L 122.46333 48.96342 L 122.46333 58.364913 L 122.46281 58.364913 L 122.46281 97.104667 C 127.40824 87.998395 130.21376 77.547327 130.21376 66.416618 L 130.21376 66.04248 C 130.21376 54.959846 127.43254 44.550751 122.52689 35.472253 L 122.52689 39.550041 L 66.664665 17.897099 L 35.768359 29.873112 L 35.768359 20.471102 L 66.715308 8.4754517 L 66.774736 8.5379801 L 118.11165 28.437024 C 106.47629 12.321715 87.524863 1.8706868 66.04248 1.8706868 z M 10.502718 33.785018 C 5.0108281 43.251617 1.8706868 54.266911 1.8706868 66.04248 L 1.8706868 66.416618 C 1.8706868 78.192187 5.0108281 89.207481 10.502718 98.67408 L 10.502718 96.095426 L 10.486182 96.100594 L 10.486182 86.699101 L 10.502718 86.693416 L 10.502718 58.439844 L 10.486182 58.445011 L 10.486182 49.043001 L 10.502718 49.037834 L 10.502718 33.785018 z " /></g></svg>
