<?xml version="1.0" encoding="UTF-8" standalone="no"?>
<!-- Created with Inkscape (http://www.inkscape.org/) -->

<svg
   width="500"
   height="500"
   viewBox="0 0 132.29166 132.29167"
   version="1.1"
   id="svg1"
   xml:space="preserve"
   inkscape:version="1.4.2 (ebf0e940, 2025-05-08)"
   sodipodi:docname="logos.svg"
   xmlns:inkscape="http://www.inkscape.org/namespaces/inkscape"
   xmlns:sodipodi="http://sodipodi.sourceforge.net/DTD/sodipodi-0.dtd"
   xmlns="http://www.w3.org/2000/svg"
   xmlns:svg="http://www.w3.org/2000/svg"><sodipodi:namedview
     id="namedview1"
     pagecolor="#ffffff"
     bordercolor="#000000"
     borderopacity="0.25"
     inkscape:showpageshadow="2"
     inkscape:pageopacity="0.0"
     inkscape:pagecheckerboard="0"
     inkscape:deskcolor="#d1d1d1"
     inkscape:document-units="mm"
     inkscape:zoom="0.70710678"
     inkscape:cx="221.32442"
     inkscape:cy="295.57064"
     inkscape:window-width="1920"
     inkscape:window-height="1021"
     inkscape:window-x="0"
     inkscape:window-y="31"
     inkscape:window-maximized="0"
     inkscape:current-layer="layer1"
     inkscape:lockguides="true" /><defs
     id="defs1" /><g
     inkscape:label="Layer 1"
     inkscape:groupmode="layer"
     id="layer1"><path
       id="rect6-4-4-9"
       style="fill:#ff00ff;fill-opacity:1;stroke:none;stroke-width:0.316646;paint-order:stroke markers fill"
       d="M 66.396917,1.7404836 30.730009,15.396324 v 10.70326 L 66.338831,12.465723 130.72084,37.116012 V 26.412997 L 66.46548,1.8111626 Z M 16.144168,20.9981 1.6108967,26.562574 v 21.354373 l -0.019361,0.0061 V 58.62606 l 0.019361,-0.0061 v 32.164562 l -0.019361,0.0061 v 10.703018 l 0.019361,-0.006 V 131.5777 L 16.144168,126.01326 V 95.92308 L 51.817342,82.264892 V 71.561604 L 16.144168,85.220097 V 53.055505 L 51.829535,39.392506 V 28.689765 L 16.144168,42.352749 Z m 50.218639,2.221705 -0.0097,95.243835 14.533245,5.56421 V 39.482513 l 35.227578,13.487732 v 70.502495 l 14.53322,5.56447 V 58.534718 l 4.4e-4,2.73e-4 V 47.831977 l -4.4e-4,-2.74e-4 v -0.155437 h -0.4056 z"
       sodipodi:nodetypes="ccccccccccccccccccccccccccccccccccccccccccc" /></g></svg>
