<?xml version="1.0" encoding="UTF-8" standalone="no"?>
<!-- Created with Inkscape (http://www.inkscape.org/) -->

<svg
   width="500"
   height="500"
   viewBox="0 0 132.29166 132.29167"
   version="1.1"
   id="svg1"
   xml:space="preserve"
   inkscape:version="1.4 (e7c3feb1, 2024-10-09)"
   sodipodi:docname="logo.svg"
   xmlns:inkscape="http://www.inkscape.org/namespaces/inkscape"
   xmlns:sodipodi="http://sodipodi.sourceforge.net/DTD/sodipodi-0.dtd"
   xmlns="http://www.w3.org/2000/svg"
   xmlns:svg="http://www.w3.org/2000/svg"><sodipodi:namedview
     id="namedview1"
     pagecolor="#ffffff"
     bordercolor="#000000"
     borderopacity="0.25"
     inkscape:showpageshadow="2"
     inkscape:pageopacity="0.0"
     inkscape:pagecheckerboard="0"
     inkscape:deskcolor="#d1d1d1"
     inkscape:document-units="mm"
     inkscape:zoom="1.0393815"
     inkscape:cx="73.120409"
     inkscape:cy="276.60681"
     inkscape:window-width="1920"
     inkscape:window-height="974"
     inkscape:window-x="0"
     inkscape:window-y="25"
     inkscape:window-maximized="1"
     inkscape:current-layer="layer1" /><defs
     id="defs1" /><g
     inkscape:label="Layer 1"
     inkscape:groupmode="layer"
     id="layer1"><circle
       style="fill:#80b3ff;stroke-width:4.39626;stroke-linecap:round;stroke-linejoin:round;-inkscape-stroke:none;paint-order:markers stroke fill"
       id="path1027"
       cx="66.145836"
       cy="66.145836"
       r="66.145836" /><circle
       style="fill:#f9f9f9;stroke-width:4.11264;stroke-linecap:round;stroke-linejoin:round;-inkscape-stroke:none;paint-order:markers stroke fill"
       id="path1026"
       cx="65.94384"
       cy="65.931084"
       r="61.878483" /><path
       style="fill:#003380;stroke:none;stroke-width:0.692746"
       d="M 65.454943,2.2776149 C 60.518232,2.5971145 55.690061,2.8288415 50.827309,3.9352458 39.345304,6.5477251 27.856922,12.648352 19.592697,21.343177 0.04949086,41.904688 -4.4141734,74.273207 10.479688,98.917969 c 2.656924,4.396381 5.827465,8.684201 9.46708,12.270701 7.627478,7.5162 16.662189,12.97468 26.727028,16.19672 6.939878,2.22168 14.567325,3.46894 21.851142,2.95512 8.707061,-0.61425 17.138575,-2.59971 25.101732,-6.36583 17.1607,-8.11599 29.77775,-24.341237 34.33064,-43.101696 5.3028,-21.850411 -1.9419,-45.691932 -17.89716,-61.001398 C 102.82304,12.927387 93.858997,7.9429319 84.416682,5.0245928 78.458867,3.1831938 71.702135,1.8733038 65.454943,2.2776149 m 40.812857,25.0185441 -2.88941,-2.976491 1.80588,2.976491 c -2.68683,-1.584994 -4.64994,-5.749943 -8.123085,-6.060356 -0.930859,-0.08319 -1.235755,1.36479 -2.171092,1.589596 -1.445709,0.347478 -2.834938,-1.426768 -4.136531,-0.821777 -0.944468,0.438998 -1.191048,2.16016 -2.35893,2.067301 -1.092927,-0.08688 -1.508545,-1.960083 -2.359907,-2.568841 -1.575344,-1.126423 -1.863751,0.40466 -3.096053,0.913229 -0.578012,0.238542 -1.168482,-0.328557 -1.743035,0.03058 -1.417453,0.885958 1.696862,2.868098 -0.229777,3.853673 -1.668872,0.853718 -3.15954,-1.495367 -3.230933,-2.910028 -0.715204,0.486861 -1.716923,1.079406 -2.134732,1.877097 -1.206398,2.303319 1.442379,4.472673 0.406043,6.679598 -1.020933,2.174132 -3.866391,1.90196 -4.16397,4.837511 -0.16916,1.668718 1.976969,2.32325 1.558547,4.092672 -3.606254,-1.090696 -5.349829,-4.377347 -4.821675,-8.185344 0.211519,-1.525054 0.960897,-2.922125 1.029327,-4.464742 -1.549387,1.844671 -2.882438,4.006365 -2.889408,6.511073 h -0.180595 l -0.361167,-1.48826 h -0.180594 l 0.722356,4.092672 H 66.538464 L 65.81612,35.667532 h -0.180584 l 1.083523,3.348552 -1.264116,-1.674271 h -0.180584 l 1.625293,3.906642 -1.805887,-2.418391 h -0.180583 l 2.347647,4.836792 -2.528241,-2.790461 3.431172,5.580922 c -1.287573,-0.76671 -2.393657,-1.98374 -3.069995,-3.348559 h -0.180583 l 3.431172,5.394891 -2.708818,-2.418389 4.153516,5.952972 h -0.180585 l -3.43117,-3.534583 7.042931,7.627264 -4.875874,-3.534591 c 1.764514,2.90599 5.094,5.419775 8.307045,6.325054 v 0.186029 c -2.044138,-0.271948 -3.488756,-1.207438 -5.237054,-2.232371 1.085814,1.109269 2.425894,2.473476 3.97294,2.790461 v 0.18602 h -0.541764 v 0.18604 l 2.167056,1.116181 c 0.688729,-0.02893 2.26165,0.567954 2.347642,1.302221 l 2.708821,0.55809 C 80.740215,63.548128 78.242632,62.344874 77.012577,61.752455 72.409921,59.535744 68.444271,55.800006 66.133261,51.108081 60.291078,39.247006 64.807604,24.610314 76.470813,18.602965 c 3.578033,-1.842942 7.410834,-2.548443 11.377045,-2.548443 5.431215,0 11.294778,2.513989 15.169342,6.407564 1.1518,1.15744 3.32825,3.040421 3.2506,4.834073 m -3.79234,-4.092671 0.90293,1.11618 -0.90293,-1.11618 m 2.16704,10.231684 c -0.43562,1.376382 -1.73238,3.401879 -2.88939,1.302211 l -0.36118,0.37207 c -0.83827,-1.295288 -0.84088,-3.066624 -1.625297,-4.278712 -0.943224,-1.457534 -2.765068,-0.231902 -3.250558,-2.232361 -0.373265,-1.538044 1.26078,-5.660434 3.250558,-4.464742 2.105977,1.265523 4.481217,3.989202 5.237047,6.325043 0.34073,1.052979 -1.02317,3.146978 -0.36118,2.976491 M 83.152567,26.36601 c 0.260477,0.7075 0.152186,1.026164 -0.541764,1.30221 -0.146193,-0.673144 -0.04914,-0.966169 0.541764,-1.30221 m 5.237047,0.9847 c 5.31066,-0.654319 6.262609,7.971714 0.902943,8.630323 -5.289999,0.650058 -6.326092,-7.96215 -0.902943,-8.630323 m -8.841001,5.99934 c 1.393606,-0.249163 1.965448,2.173179 0.526154,2.433478 -1.380234,0.2496 -1.972089,-2.174966 -0.526154,-2.433478 m 22.565667,0.643212 0.18058,0.186031 -0.18058,-0.186031 m -7.04932,1.277532 c 0.786522,6e-5 1.091684,1.335511 0.184217,1.411314 -0.885571,0.07397 -1.117922,-1.411381 -0.184217,-1.411314 m -29.549816,0.148713 0.06019,0.124013 -0.06019,-0.124013 m -0.421379,1.736306 0.180594,0.18603 -0.180594,-0.18603 m -11.918809,7.441224 c -3.967629,0.527839 -7.954355,1.926318 -11.557632,3.679856 -1.474154,0.717393 -2.965997,2.220614 -4.514701,2.654235 -1.051145,0.294306 -2.446147,-1.127269 -3.431168,-1.478484 -1.735579,-0.618836 -3.388385,-0.308481 -5.056473,0.353255 0.272707,-3.439237 2.740649,-7.672329 5.959411,-8.929474 v -0.18603 C 26.573914,42.643429 22.872038,51.03256 24.280876,58.735364 h -0.180584 c -1.573023,-5.752741 -0.371138,-9.992803 3.069992,-14.696418 -5.290976,4.295332 -5.072141,10.829522 -3.431169,16.742758 -3.764271,-3.83682 -1.643224,-12.069472 1.064717,-15.812608 5.114245,-7.069347 15.000432,-9.109232 22.592308,-5.254218 2.109407,1.071115 4.666616,2.673593 5.778816,4.882159 m -24.921141,-1.674272 -1.083531,1.116181 1.083531,-1.116181 m 28.532904,5.766943 -11.196455,2.46075 -7.223525,3.678263 C 38.23489,54.255273 37.765,53.411167 38.029395,52.838369 c 0.440815,-0.955014 2.178432,-1.671136 3.046169,-2.143085 3.15419,-1.715531 6.610039,-3.056331 10.112922,-3.782337 1.124578,-0.233076 3.012927,-0.84828 4.134572,-0.497811 0.796623,0.24891 1.175878,1.562489 1.463661,2.274572 m 9.209984,-0.372059 0.180594,0.18603 -0.180594,-0.18603 m -19.864678,24.55605 c 1.546131,-1.388837 3.391588,-2.325521 4.79659,-3.923291 2.962851,-3.369356 3.991114,-7.982004 3.45876,-12.447416 -0.213844,-1.793692 -0.959169,-3.442401 -1.212419,-5.208852 0.647183,-0.123839 2.006013,-0.566721 2.591635,-0.173546 1.267679,0.851116 1.674671,4.700848 1.735366,6.126528 0.221775,5.209057 -0.909753,10.054305 -4.688178,13.758802 -2.073563,2.03301 -4.058052,3.445293 -6.681754,1.867775 M 32.768517,61.711855 c -0.0231,-0.556528 -0.246708,-1.291347 0.01213,-1.807197 0.744247,-1.48329 2.564385,-2.325036 1.75251,-4.331806 -1.28326,-3.171948 -6.170662,-2.724164 -6.268744,0.93014 -0.06622,2.466331 2.517386,2.946308 2.517638,5.394893 -6.29613,-0.569838 -5.660568,-10.648675 0.541762,-10.779727 5.90779,-0.12482 7.635787,9.936931 1.444709,10.593697 m 35.395245,-9.301536 0.180592,0.186032 -0.180592,-0.186032 m 2.708818,3.906653 0.541764,0.55809 -0.541764,-0.55809 m 9.751753,0.806127 c 0.139662,0 0.02894,0.09262 -0.06021,0.06204 l 0.06021,-0.06204 m -0.36117,0.124023 -0.180592,0.186031 0.180592,-0.186031 m 35.756382,13.580237 9.93236,-1.116181 -0.36118,2.976492 -7.58471,0.905888 -2.97982,0.717715 -1.35428,3.95731 11.19647,-1.674272 -0.74759,2.924815 -1.59005,1.353752 1.07351,0.744256 c -0.0688,1.624332 -0.8712,5.407241 -2.35558,6.240785 -1.35886,0.76307 -3.09524,0.465415 -4.50677,1.11288 -0.97499,0.447231 -1.71144,1.837185 -2.72496,2.03372 -0.95482,0.185136 -1.93948,-0.798827 -2.87327,-0.95413 -1.08542,-0.180536 -1.84256,0.504209 -2.70882,1.054319 0.40334,-2.444333 1.46606,-4.90275 2.22725,-7.255193 1.32258,-4.087274 2.5901,-8.19051 3.91274,-12.278035 0.54565,-1.686213 2.60959,-5.566526 1.77342,-7.25232 -0.88369,-1.781607 -4.08711,-1.730114 -5.74634,-2.11424 -5.62511,-1.302231 -11.329554,-2.269769 -16.975253,-3.469556 1.210228,-1.571558 3.766632,-0.304326 5.417629,-0.01505 4.466184,0.782478 8.920334,1.704211 13.363494,2.619498 1.51478,0.312044 3.95276,0.295093 4.9386,1.682465 1.42992,2.012392 -0.85417,5.70049 -1.32685,7.805101 M 10.917396,90.918668 H 10.736802 C 9.8836583,88.807719 8.1956415,86.174173 8.0966756,83.849515 8.0303676,82.292064 8.6673369,80.531301 8.9668766,79.012712 9.8550773,74.509661 11.506592,69.470938 11.592093,64.874377 11.635493,62.539505 9.1724596,60.612052 7.1251781,61.898895 4.009635,63.857211 6.200493,68.09307 9.4726873,67.292777 L 6.9444572,79.384773 H 6.5832803 L 4.6274701,69.525148 4.9579885,58.177273 c 2.759762,0.0078 5.5790085,0.660852 8.3070455,1.065804 1.070746,0.158944 2.448651,0.14445 3.116542,1.17676 0.50586,0.781877 0.189117,1.752092 0.02562,2.594238 l -1.047301,5.394893 c -1.457994,7.508268 -3.028027,14.996023 -4.442513,22.5097 m 13.544101,-31.997265 -0.180594,0.186031 0.180594,-0.186031 m 54.176401,1.302211 v 0.18603 l -3.069997,-0.372061 3.069997,0.186031 m -0.180593,0.992167 c 0.139661,0 0.02894,0.09261 -0.0602,0.06204 l 0.0602,-0.06204 m 2.167058,0.124014 -0.180586,0.186029 0.180586,-0.186029 m 0.722355,0.806156 c 0.139654,0 0.02894,0.09262 -0.06021,0.06204 l 0.06021,-0.06204 M 8.2093947,62.928234 C 10.002979,62.601589 10.611737,65.47761 8.7496309,65.866543 6.9557157,66.241234 6.3831711,63.260831 8.2093947,62.928234 m 26.5455983,0.08583 c 1.777247,5.411843 6.418145,10.902323 11.918809,12.464056 -0.811778,2.851089 -3.94398,0.496277 -5.417639,-0.451154 C 37.713796,72.749549 33.514234,68.29535 33.1297,63.758184 l 1.625293,-0.74412 m 76.749887,3.720621 c -0.29903,3.527786 -2.17175,7.423671 -3.25044,10.789775 -2.14194,6.68392 -4.20629,13.397294 -6.32073,20.09131 -3.717689,-2.132181 -7.158487,-5.044764 -10.65467,-7.546296 -0.985433,-0.705094 -3.257089,-1.700144 -3.667081,-2.927261 -0.349043,-1.044688 0.754033,-3.033605 1.078655,-4.03684 1.099942,-3.399258 2.133938,-6.819204 3.192335,-10.231675 0.74675,-2.407703 1.367614,-4.866179 2.167056,-7.255203 0.212747,-0.635766 0.441261,-2.193081 1.097036,-2.484854 1.091876,-0.485822 3.509708,0.644834 4.619622,0.926985 3.878107,0.985896 7.816857,1.89067 11.738217,2.674059 M 82.430233,63.262122 c 0.139654,0 0.02894,0.09262 -0.06021,0.06204 l 0.06021,-0.06204 m 0.902936,-0.06204 -0.180586,0.18603 0.180586,-0.18603 m -57.968752,1.30222 3.431179,1.455941 2.452701,0.05418 1.159052,2.582617 c -1.860456,-0.623621 -6.512287,-1.864456 -7.042932,-4.092681 m 70.068147,0 -3.792347,13.394216 h 0.18059 c 1.855171,-4.085556 3.806381,-8.783607 4.695284,-13.208186 L 95.432564,64.502355 M 43.42322,78.26862 c -0.777206,2.327019 -4.312778,0.176595 -5.778817,-0.61766 -3.425479,-1.855805 -6.561507,-3.948591 -10.293516,-5.144544 -3.640315,-1.166576 -7.314346,-1.3432 -11.015861,-2.051079 v -0.18603 l 6.50117,-0.18603 v -0.18603 l -5.598232,-0.5581 c 1.881173,-1.162663 5.347962,-0.657834 7.404108,-0.258367 3.588133,0.697094 7.156412,2.179306 10.293517,4.091235 2.77119,1.688931 5.452492,3.943282 8.487631,5.096605 m -3.431169,9.301525 -1.805877,-2.23236 h -0.180593 l 0.541771,1.86031 -1.625293,-0.37207 v 0.186031 c 2.570025,1.018379 6.566079,5.599338 5.660365,8.743443 -0.60967,2.116425 -2.494319,3.545847 -4.035072,4.887881 -2.199159,1.91555 -4.176388,4.30708 -7.042932,5.15778 0.571944,-3.42397 3.488448,-8.935858 6.862338,-10.045661 V 95.56947 c -4.804182,0.8516 -8.522115,5.93474 -9.571162,10.60376 h -0.180593 c 0,-5.19471 2.170198,-11.652479 7.765285,-13.022162 v -0.18603 c -3.651955,0.03116 -6.657861,1.767238 -9.751745,3.534582 1.075095,-3.475584 5.258752,-6.409796 8.668223,-6.883134 v -0.186029 c -5.36871,6e-4 -10.361513,3.391102 -12.46057,8.557414 h -0.180593 c 1.094996,-5.465045 5.619211,-10.903227 11.377038,-11.161846 v -0.18602 l -4.695285,-0.18604 c 0.791449,-1.106968 1.973947,-1.853515 3.250585,-2.232371 v -0.18603 c -4.819957,0.04106 -8.056708,3.095903 -11.738224,5.766953 1.734656,-4.599328 5.951001,-8.886283 11.015871,-8.929474 V 80.687012 C 25.036821,79.797996 20.142021,84.458516 17.779724,90.732667 H 17.599141 C 18.409219,84.135366 23.00382,78.63142 29.698534,78.082582 v -0.186021 c -4.581941,-1.126869 -10.272294,0.245833 -13.363508,4.092671 -0.08485,-1.015485 1.050125,-2.039767 1.702065,-2.711367 2.170637,-2.23606 4.981892,-3.565405 8.04968,-3.783056 6.808002,-0.482996 13.039786,5.171505 13.90528,12.075336 m 73.499299,-9.301534 0.18058,0.186041 -0.18058,-0.186041 m 9.75175,2.046341 -0.18059,0.18603 0.18059,-0.18603 M 43.784397,91.848858 42.028819,85.895875 39.630873,80.873043 c 5.031007,0.765973 5.62394,6.938305 4.153524,10.975815 m 1.264115,2.976481 c 0.646776,-2.906261 1.400246,-6.127227 0.742558,-9.115494 -0.356216,-1.618498 -1.283882,-2.929873 -1.82608,-4.464733 1.632836,-0.768798 3.285235,1.220555 3.976279,2.604432 1.220604,2.444341 1.154267,5.36167 0.703813,7.999314 -0.13215,0.773827 -0.30588,2.297775 -0.979848,2.785286 -0.614029,0.444154 -1.897329,0.191195 -2.616722,0.191195 m 38.82642,-9.859615 c -0.541546,2.69564 -2.211447,4.911022 -5.237048,4.648889 -1.119982,-0.09708 -2.119196,-0.939617 -3.250583,-1.114307 v -0.18603 l 8.487631,-3.348552 m -46.049944,0.186031 0.180593,0.18603 -0.180593,-0.18603 m 16.43352,5.766943 c 2.145879,-1.865563 3.301563,-0.696124 5.521585,-0.108229 1.17109,0.310131 1.918181,-0.310092 2.721775,1.041252 0.919248,1.54583 1.95716,5.165234 -0.658669,4.833929 -9.7e-4,-1.917532 -0.730985,-3.130552 -1.444708,-4.836792 h -0.180583 c 0.299393,2.440419 0.134867,5.358165 -2.889409,4.943883 -0.470561,-0.06447 -1.292124,-0.01311 -1.620274,-0.431213 -0.508442,-0.647755 -0.650357,-3.212344 -0.907957,-4.140611 h -0.180593 c -0.04883,1.155043 -0.440028,4.016278 -1.813682,4.232773 -1.023087,0.161235 -2.062185,-0.739557 -2.881603,-1.256281 l 1.083533,-6.325042 c 1.419573,0.119605 2.573829,0.713732 3.250585,2.046331 m 20.045264,-1.116181 v 0.18604 h -3.431177 c 2.142336,2.502901 6.459609,-0.544072 8.126461,3.348551 -1.896765,-0.336237 -3.798279,-1.312666 -5.776171,-0.670066 -1.156687,0.375808 -1.115572,1.711347 -2.027709,2.318357 -1.482347,0.986459 -4.038527,1.315881 -5.740214,1.886281 0,-2.263428 -0.432328,-4.049869 -1.264116,-6.139013 3.328184,-1.827778 6.557057,-2.34322 10.112926,-0.93015 m 41.354628,0.55809 -0.18059,0.186039 0.18059,-0.186039 m -47.855795,20.277353 6.862339,-1.67428 1.813125,1.97873 5.590986,-1.54322 12.641159,-3.97009 -3.069997,-3.5346 -7.358123,-7.303266 -3.115981,-3.486498 c 3.453495,-0.733897 6.810124,3.83153 9.209988,6.12249 2.011335,1.92008 4.06492,3.829614 6.13999,5.676234 0.743292,0.66147 2.114848,1.55734 2.087218,2.71154 -0.025,1.0446 -1.09331,1.46955 -1.906625,1.72637 -2.109546,0.66614 -4.218675,1.33832 -6.320583,2.03053 -4.685618,1.54316 -9.418969,2.95009 -14.085865,4.55261 -1.622938,0.55728 -4.251382,1.92222 -5.952156,1.17646 -1.206936,-0.52923 -2.142785,-3.24093 -2.535475,-4.46301 m 43.882845,-19.905293 -0.18057,0.186031 0.18057,-0.186031 m -3.25058,0.558101 -0.18059,0.18602 0.18059,-0.18602 m 0,0.372059 -0.36117,0.55809 0.36117,-0.55809 m -0.36117,0.930151 -0.18059,0.18603 0.18059,-0.18603 m -27.268759,0.18603 1.083528,0.93015 v 0.186041 l -0.902942,0.372049 -0.180586,-1.48824 m 27.088169,0.18603 v 0.55809 h -0.18059 l 0.18059,-0.55809 m -0.18059,0.74412 -0.18059,0.186041 0.18059,-0.186041 m -0.18059,0.55809 -0.18059,0.186041 0.18059,-0.186041 m -29.977574,0.558091 v 0.18604 l -2.347648,-0.372061 2.347648,0.186021 m 5.778813,0.93016 c -0.838921,0.205077 -1.531368,0.292103 -1.986464,-0.55809 0.904417,-0.338887 1.604986,-0.510588 1.986464,0.55809 m 24.018171,-0.74412 -0.18059,0.18603 0.18059,-0.18603 m 11.01588,0 -0.18058,0.18603 0.18058,-0.18603 m -0.36118,0.18603 0.1806,0.372061 -0.1806,-0.372061 m -0.18058,0.74412 c -0.73107,2.55934 -5.4614,4.897201 -7.40412,2.232372 2.64311,-0.0564 4.99549,-1.270019 7.40412,-2.232372 M 85.139053,97.42978 c -1.147898,0.480831 -1.744783,0.549693 -2.528235,-0.5581 1.132247,-0.378487 1.761793,-0.516976 2.528235,0.5581 m -4.334112,0.93015 -7.042934,-0.372059 v 0.18603 c 3.05697,1.308992 7.919817,0.609148 10.112925,3.534579 l -7.945867,-0.37207 c 0.560424,1.42763 1.608678,1.20817 2.889405,1.3338 2.052541,0.20136 3.950793,0.65639 5.959404,1.08461 -1.142185,2.0171 -3.263135,1.46479 -5.237054,1.48898 -3.815144,0.0467 -7.536419,1.11546 -11.377044,1.11546 0,-3.27744 -1.464678,-4.82862 -2.708814,-7.627271 3.750517,-0.893811 7.268771,-2.373586 11.196452,-1.889162 1.403249,0.173078 3.177778,0.366099 4.153527,1.517103 m -29.616435,0.930146 c 1.629903,-0.845077 3.372162,-0.91703 4.695293,0.558097 h 0.180585 c 1.02101,-1.192034 2.279456,-0.664007 3.611763,-0.604887 1.236155,0.0549 2.025836,-0.570027 3.250585,0.14599 3.430731,2.005694 4.674857,7.818174 1.083521,10.132494 0.245134,-3.19953 -0.270774,-5.62323 -2.528231,-7.99933 0.97645,4.39821 1.467951,10.19142 -3.250585,12.46408 2.015246,-3.36407 2.678234,-5.76314 2.167054,-9.6736 h -0.180583 c -0.02903,3.61506 -2.044623,7.00164 -5.237056,8.55741 0.428379,-1.04936 1.168149,-1.929 1.618186,-2.97648 1.316259,-3.06368 0.835486,-5.56976 -0.354071,-8.55744 h -0.180583 c 0,5.97273 -2.986879,11.91914 -9.029402,13.39423 v -0.18604 c 4.070789,-3.1951 6.294929,-8.05468 4.695285,-13.20819 h -0.180584 c -0.124362,6.17323 -5.59698,12.81866 -11.738226,12.83612 v -0.18601 c 4.181503,-1.88276 7.971034,-8.03676 6.862348,-12.83614 -2.461147,5.35053 -5.815532,9.4837 -11.377039,11.34789 l 3.366375,-3.90665 4.398902,-7.44124 -5.237055,4.27872 c 0.979167,-4.36004 3.31799,-7.635395 7.765295,-8.291724 2.021701,-0.298355 4.641365,0.04495 5.598223,2.1527 m 42.077,-2.232366 c 2.692733,1.739979 6.1246,3.94642 8.126434,6.51109 -1.774417,0.91617 -5.221063,-3.28256 -6.501141,-4.478674 -0.572976,-0.535397 -1.64297,-1.181805 -1.625293,-2.032416 m 13.303294,0.310054 -0.0601,0.124022 0.0601,-0.124022 m 4.75548,0.248037 -0.1806,0.186039 0.1806,-0.186039 m -4.87587,0.37207 -0.1806,0.18603 0.1806,-0.18603 m -19.1423,1.674272 c -1.323344,0.443407 -2.362711,0.799857 -3.069999,-0.744124 1.386418,-0.550011 2.142819,-0.595776 3.069999,0.744124 m 18.78112,-0.372067 -0.18058,0.186037 0.18058,-0.186037 m -16.614072,2.604424 -2.889404,0.93018 -0.72235,-1.48827 c 1.542144,-0.45081 2.538103,-0.99244 3.611754,0.55809 m 2.347649,2.60444 -3.792349,1.30222 -1.083526,-1.67428 c 1.927396,-0.76021 3.477671,-1.66547 4.875875,0.37206 m -12.641158,2.41841 0.361171,1.30221 -1.986464,0.55809 -0.722355,-1.30221 2.347648,-0.55809 m 20.225837,1.67427 -0.18059,0.18603 0.18059,-0.18603 m -1.264103,0.5581 -0.18059,0.18602 0.18059,-0.18602 m -1.083529,0.37205 -0.180585,0.18604 0.180585,-0.18604 m -4.514696,1.48823 -0.180586,0.18606 0.180586,-0.18606 m 10.112902,0 -0.18059,0.18606 0.18059,-0.18606 m 2.52822,0.18606 -0.18058,0.18602 0.18058,-0.18602 m -2.34764,0.37204 0.18059,0.93017 c -1.08258,-0.28607 -1.49288,0.9813 -2.18334,1.64944 -0.79769,0.7719 -1.977271,1.11142 -3.051034,0.86513 -1.297472,-0.29762 -1.482194,-1.6763 -0.344873,-2.36115 1.580873,-0.95187 3.620037,-1.08359 5.398657,-1.08359 m 1.26412,0.74413 -0.36117,0.37207 0.36117,-0.37207 m -1.62529,0.37207 -0.18058,0.18603 0.18058,-0.18603 m -9.571134,0.18603 -2.347649,2.79046 h 0.361178 l -0.180586,0.55809 c 1.841016,0.60245 3.201366,0.39422 5.056462,0 -1.239194,3.67753 -7.398663,6.21999 -10.83528,6.69711 -0.21644,-1.68052 -2.259118,-0.90547 -3.250584,-0.55752 -3.487999,1.22405 -7.073162,2.07733 -10.474104,3.53399 0.382475,-2.21031 1.896677,-3.58753 3.972935,-4.05333 1.171548,-0.26283 3.522139,-0.34246 3.972941,-1.71361 l 0.541764,0.18604 v -0.5581 c 0.632099,0 1.117095,-1.12051 0.69225,-1.67428 -0.452447,-0.58975 -1.153024,-0.37206 -1.775779,-0.37206 0.693391,-1.25869 2.540698,-1.62092 3.792349,-2.04648 3.400955,-1.15632 6.909407,-2.3238 10.474103,-2.79031 m 10.112894,0.37206 -0.18059,0.18604 0.18059,-0.18604 m -3.972914,2.23237 -0.180587,0.18603 0.180587,-0.18603 m -0.902933,1.11617 v 0.18606 l -0.541769,0.18601 0.541769,-0.37207 m -1.264114,0.74413 -0.180585,0.18603 0.180585,-0.18603 m -1.444705,0.37206 -0.180586,0.18603 0.180586,-0.18603 m -0.180586,0.55809 -0.180586,0.18604 0.180586,-0.18604 m -37.923479,1.30221 c -1.243951,2.74797 -6.298597,5.30301 -9.029402,4.09268 2.126241,-2.39007 5.91584,-3.95283 9.029402,-4.09268 m -2.889408,0.18604 v 0.18604 l -0.902939,0.18602 0.902939,-0.37206 m 24.559965,0 -0.180586,0.18604 0.180586,-0.18604 m -14.447033,1.8603 v 0.18604 l -6.681762,3.96821 -3.792347,-0.61966 c 2.650788,-1.72645 7.333034,-3.39529 10.474109,-3.53459 m 20.225851,0.93016 -0.180584,0.18603 0.180584,-0.18603 m -13.002336,0.37207 -0.180585,0.18601 0.180585,-0.18601 m 12.641158,0.062 c 0.139661,0 0.02894,0.0926 -0.0602,0.062 l 0.0602,-0.062 m -12.460573,0.31006 -0.180585,0.18604 0.180585,-0.18604 m -20.767617,0.93017 -0.180583,0.18601 0.180583,-0.18601 m 7.765285,1.48824 -0.180583,0.18602 z"
       id="path1028"
       sodipodi:nodetypes="cccssscccssccccsssssscscssscscccccccccccccccccccccccccccccccccccccssssscccccccsssscccccsccscccccsccccccccsssccccccccscccccccsssscccccssccsscccsccscccccccccccccccccccccccssssccsscccsscccsccscccccssccccccccccccccccccccscccscccscsscssscccccccccccccccccccsscccccsscccccccssccccccccccccccccccccccccccsccccccccccccscsssccccccccccsscccscccscccccccssccccccccccccccsscccsscccccccccccccccccccccccccccccccccccccccccccccccccccccccsccccsccccssccccccscccccccccccccscccscccccccccccccccccccccccccccccccccccccccccccccccccssscccccccccccccscscccscsccccccccccccccccccccccccccccccccccccccccccccccccccccc" /><path
       style="fill:#f9f9f9;stroke:none;stroke-width:1.25439"
       d="m 44.772841,12.111338 c 0.3966,4.542308 3.744591,7.897274 8.297274,8.297263 v 0.331886 c -4.415177,1.021963 -7.666893,3.638934 -8.297274,8.297274 h -0.331887 c -0.999348,-4.780354 -3.744593,-7.004876 -8.297262,-8.297274 v -0.331886 c 5.568701,-1.288321 5.753835,-4.266896 8.629149,-8.297263"
       id="path1134" /><path
       style="fill:#f9f9f9;stroke:none;stroke-width:0.622309"
       d="m 116.24264,43.875287 c 0.19675,2.253462 1.85771,3.917877 4.11631,4.116313 v 0.164651 c -2.19039,0.507001 -3.80358,1.805293 -4.11631,4.116319 h -0.16466 c -0.49578,-2.371558 -1.85771,-3.475154 -4.11631,-4.116319 V 47.9916 c 2.76266,-0.639142 2.85451,-2.116828 4.28097,-4.116313"
       id="path1134-9" /><path
       style="fill:#f9f9f9;stroke:none;stroke-width:0.32047"
       d="m 55.27468,24.713415 c 0.10132,1.160464 0.956664,2.017588 2.119775,2.119776 v 0.08479 c -1.127985,0.261091 -1.958729,0.929672 -2.119775,2.11978 h -0.08479 c -0.255312,-1.221281 -0.956664,-1.789599 -2.119775,-2.11978 v -0.08479 c 1.422686,-0.329139 1.469986,-1.090102 2.20457,-2.119776"
       id="path1134-9-2" /><path
       style="fill:#f9f9f9;stroke:none;stroke-width:0.653958"
       d="m 66.628295,9.863459 c 0.206756,2.368068 1.952195,4.117133 4.325655,4.32566 v 0.173024 c -2.30179,0.532788 -3.997019,1.897109 -4.325655,4.325668 h -0.173022 c -0.520997,-2.492172 -1.952191,-3.651893 -4.32566,-4.325668 v -0.173024 c 2.903163,-0.671648 2.999685,-2.224485 4.498689,-4.32566"
       id="path1134-9-2-9" /><g
       id="g1037" /></g></svg>
