<?xml version="1.0" encoding="UTF-8" standalone="no"?>
<!-- Created with Inkscape (http://www.inkscape.org/) -->

<svg
   width="30"
   height="30"
   viewBox="0 0 7.9374999 7.9374999"
   version="1.1"
   id="svg1"
   xml:space="preserve"
   inkscape:version="1.4 (e7c3feb1, 2024-10-09)"
   sodipodi:docname="contact.svg"
   xmlns:inkscape="http://www.inkscape.org/namespaces/inkscape"
   xmlns:sodipodi="http://sodipodi.sourceforge.net/DTD/sodipodi-0.dtd"
   xmlns="http://www.w3.org/2000/svg"
   xmlns:svg="http://www.w3.org/2000/svg"><sodipodi:namedview
     id="namedview1"
     pagecolor="#ffffff"
     bordercolor="#000000"
     borderopacity="0.25"
     inkscape:showpageshadow="2"
     inkscape:pageopacity="0.0"
     inkscape:pagecheckerboard="0"
     inkscape:deskcolor="#d1d1d1"
     inkscape:document-units="mm"
     inkscape:zoom="23.518519"
     inkscape:cx="18.793701"
     inkscape:cy="17.114173"
     inkscape:window-width="1920"
     inkscape:window-height="974"
     inkscape:window-x="0"
     inkscape:window-y="25"
     inkscape:window-maximized="1"
     inkscape:current-layer="layer1" /><defs
     id="defs1" /><g
     inkscape:label="Layer 1"
     inkscape:groupmode="layer"
     id="layer1"><path
       style="opacity:1;fill:#c9d7e4;stroke-width:1.00012;stroke-linecap:round;stroke-linejoin:round;paint-order:markers stroke fill;fill-opacity:1"
       d="m 0.33221533,2.2441057 0.29848976,-0.00516 v -0.636438 l 0.31926956,2.73e-5 -0.007414,-0.3118566 6.02698885,0.00633 0.012896,0.3054924 0.3048785,0.012729 0.013298,0.6237228 0.3055596,0.021209 0.00669,0.9282447 -0.950196,0.0052 L 6.3398322,2.8834127 6.0279806,2.576273 5.7223217,2.5571699 5.7086057,3.5125929 7.6060902,5.1156597 7.6062953,7.3177754 0.32671385,7.3177598 0.32045539,5.0440703 0.92342749,4.7465241 1.2669282,4.5442634 1.8994983,3.8203579 2.2209015,3.5886667 2.2218857,2.5603499 1.5867721,2.5557564 1.5984719,2.883472 1.2671368,2.9549309 V 3.193597 H 0.32922805 Z"
       id="path18" /><path
       style="fill:#c9d7e4;stroke-width:0.0481089"
       d="M 0.48266451,7.3050319 H 0.3252134 l 1.9268e-4,-0.1431994 1.928e-4,-0.1431996 0.009339,-0.012728 0.009339,-0.012728 h 0.14638013 0.14638384 l 0.002224,-0.7891884 0.002223,-0.7891888 0.15372989,-0.00356 0.15372989,-0.00356 0.001853,-0.1237144 0.001853,-0.1237144 3.7064e-4,-0.035067 3.7064e-4,-0.035067 0.0137507,0.00156 0.0137507,0.00156 0.14281079,-0.00152 0.1428072,-0.00152 0.00371,-0.1559284 0.00371,-0.1559286 H 1.4298787 1.585825 l -1.48e-5,-0.160661 -1.85e-5,-0.1606412 0.034989,2.746e-4 0.034989,2.746e-4 0.1241047,-0.00193 0.1241085,-0.00193 0.0026,-0.3086744 0.0026,-0.3086747 0.00697,0.1527462 0.00697,0.1527462 0.019088,-0.00171 0.019088,-0.00171 0.1300795,-0.00148 0.1300795,-0.00148 0.00371,-0.1533781 0.00371,-0.1533782 1.7374884,6.301e-4 1.7374848,6.301e-4 0.00637,0.1541858 0.00637,0.1541861 0.152744,0.00174 0.1527477,0.00174 0.00371,0.1559286 0.00371,0.1559282 0.021867,5.93e-4 0.021867,5.929e-4 0.1336562,0.0026 0.1336523,0.0026 0.00371,0.1559285 0.00371,0.1559281 0.1396234,0.00159 0.1396271,0.00159 0.015901,0.00159 0.015901,0.00159 0.00371,0.1555397 0.00371,0.1555397 0.1555386,0.00356 0.1555386,0.00355 0.00185,0.019091 0.00185,0.019096 0.00148,0.1364433 0.00148,0.1364433 0.1559277,0.00355 0.1559315,0.00356 v 0.789205 0.7891888 l -3.3254131,0.00322 -3.32541301,0.00322 -0.001853,0.1304468 -0.001853,0.1304466 9.636e-5,0.022275 9.637e-5,0.022275 z M 0.35703647,7.2795726 h 0.006375 v -0.00636 -0.00636 h -0.006375 -0.006375 v 0.00636 0.00636 z M 2.5411819,6.681317 h 0.3051433 l 0.00607,-0.015912 0.00607,-0.015912 0.00296,-0.9387535 0.00296,-0.9387538 -0.3261622,1.1e-6 -0.3261622,1.1e-6 0.0026,0.9398609 0.0026,0.939861 0.00915,0.014803 0.00915,0.014803 z M 2.2663643,6.4140111 h -0.00637 v -0.00636 -0.00636 h 0.00637 0.00637 v 0.00636 0.00636 z M 2.2409014,6.0321455 h -0.00637 v -0.00636 -0.00636 h 0.00637 0.00637 v 0.00636 0.00636 z m 0.025463,-0.012728 h -0.00637 v -0.00636 -0.00636 h 0.00637 0.00637 v 0.00636 0.00636 z m 0.012713,-0.2673059 h -0.00637 v -0.00636 -0.00636 h 0.00637 0.00637 v 0.00636 0.00636 z m 1.214187,0.9292064 h 0.3040758 l 0.00845,-0.044955 0.00841,-0.044954 -0.0026,-0.1014275 -0.0026,-0.1014276 -0.014121,-1.971e-4 -0.014121,-1.971e-4 0.017235,-0.010921 0.017235,-0.010921 -0.00185,-0.1639092 -0.00185,-0.1639088 4.82e-5,-0.1400174 4.82e-5,-0.1400174 -0.00111,-0.2800346 -0.00111,-0.2800344 0.00296,-0.2100262 0.00296,-0.210026 0.014677,-0.018354 0.014677,-0.018355 -0.019088,0.011794 -0.019088,0.011794 -0.00956,0.00178 -0.00956,0.00178 -0.3129564,0.00159 -0.3129526,0.00159 0.00371,0.3214033 0.00371,0.3214036 -0.00567,0.1610759 -0.00567,0.1610759 0.00956,-0.0059 0.00956,-0.0059 -1.928e-4,0.1503151 -1.927e-4,0.1503152 -0.00934,0.01461 -0.00934,0.01461 0.013899,0.3099764 0.013899,0.3099768 0.00185,0.00319 0.00185,0.00319 z M 3.755621,5.752112 h -0.00637 v -0.00636 -0.00636 h 0.00637 0.00637 v 0.00636 0.00636 z M 3.2210114,5.1156697 h -0.00637 v -0.00636 -0.00636 h 0.00637 0.00637 v 0.00636 0.00636 z M 4.4412437,6.6813181 H 4.7513684 L 4.7614497,6.3981011 4.7715311,6.1148844 4.768566,6.0894252 4.7656009,6.063966 4.76536,5.4179769 4.7651191,4.7719877 H 4.4398686 4.1146182 l 0.00875,0.2994385 0.00875,0.299438 -0.0083,0.013402 -0.00827,0.013402 0.00185,0.1644907 0.00185,0.1644903 h -0.015299 -0.015308 l 0.029354,0.025459 0.029354,0.025459 h -0.01149 -0.01149 v 0.1209242 0.1209239 l 0.012713,1.973e-4 0.01275,1.971e-4 -0.017086,0.010832 -0.017087,0.010832 0.00148,0.1634585 0.00148,0.1634584 0.015567,0.00988 0.015566,0.00988 -0.01275,2.116e-4 -0.012713,2.117e-4 0.00223,0.1368198 0.00223,0.1368196 7.414e-4,0.00955 7.413e-4,0.00955 z m 0.9541061,-0.00296 0.3077859,-0.00341 0.00371,-0.1500628 0.00371,-0.1500628 0.013603,0.0084 0.013603,0.0084 -0.013491,-0.025204 -0.013491,-0.025207 0.0026,-0.7841659 0.0026,-0.7841663 -0.2800363,-0.00363 -0.2800361,-0.00363 -0.041152,0.00398 -0.041148,0.00398 -0.00333,0.3142488 -0.00333,0.3142487 0.00637,0.3097671 0.00637,0.3097674 -0.0047,0.00466 -0.0047,0.00466 0.00185,0.3139367 0.00185,0.3139371 0.00708,0.011482 0.00708,0.011482 z M 5.1430669,6.0321396 h -0.00637 v -0.00636 -0.00636 h 0.00637 0.00637 v 0.00636 0.00636 z m 0.012713,-0.254577 h -0.00637 v -0.00636 -0.00636 h 0.00637 0.00637 v 0.00636 0.00636 z m -0.063643,-0.025459 h -0.00637 v -0.00636 -0.00636 h 0.00637 0.00637 v 0.00636 0.00636 z m 0.038187,0 H 5.12395 v -0.00636 -0.00636 h 0.00637 0.00637 v 0.00636 0.00636 z M 2.9027735,5.4084243 h 0.00637 v -0.00636 -0.00636 h -0.00637 -0.00637 v 0.00636 0.00636 z M 3.131895,4.7847106 h 0.00637 v -0.00636 -0.00636 h -0.00637 -0.00637 v 0.00636 0.00636 z M 2.2536032,4.7465241 h 0.00637 v -0.00636 -0.00636 h -0.00637 -0.00637 v 0.00636 0.00636 z m 0.5728001,0 h 0.00637 v -0.00636 -0.00636 h -0.00637 -0.00637 v 0.00636 0.00636 z m 2.8512622,0 h 0.00637 v -0.00636 -0.00636 h -0.00637 -0.00637 v 0.00636 0.00636 z M 1.591705,7.3050229 h -0.00637 v -0.00636 -0.00636 h 0.00637 0.00637 v 0.00636 0.00636 z m 2.8512622,0 h -0.00637 v -0.00636 -0.00636 h 0.00637 0.00637 v 0.00636 0.00636 z m 3.1567538,0 h -0.00637 v -0.00636 -0.00636 h 0.00637 0.00637 v 0.00636 0.00636 z M 7.5233472,5.1156608 h -0.00637 v -0.00636 -0.00636 h 0.00637 0.00637 v 0.00636 0.00636 z m 0.038187,0 h -0.00637 v -0.00636 -0.00636 h 0.00637 0.00637 v 0.00636 0.00636 z m 0.038187,0 h -0.00637 v -0.00636 -0.00636 h 0.00637 0.00637 v 0.00636 0.00636 z M 0.33154759,5.1029331 h -0.006375 v -0.00636 -0.00636 h 0.006375 0.006375 v 0.00636 0.00636 z M 6.9632784,4.8356272 h -0.00637 v -0.00636 -0.00636 h 0.00637 0.00637 v 0.00636 0.00636 z m 0,-0.038187 h -0.00637 v -0.00636 -0.00636 h 0.00637 0.00637 v 0.00636 0.00636 z M 0.92980328,4.7465253 h -0.006375 v -0.00636 -0.00636 h 0.006375 0.006375 v 0.00636 0.00636 z M 6.6450552,4.6956098 h -0.00637 v -0.00636 -0.00636 h 0.00637 0.00637 v 0.00636 0.00636 z m 0.00223,-0.182447 -0.00849,0.00849 v -0.016972 -0.016972 l 0.00849,0.00849 0.00849,0.00848 z M 6.3651227,4.4792197 h -0.00637 v -0.00636 -0.00636 h 0.00637 0.00637 v 0.00636 0.00636 z m 0.190931,0 h -0.00637 v -0.00636 -0.00636 h 0.00637 0.00637 v 0.00636 0.00636 z m 0.038187,0 h -0.00637 v -0.00636 -0.00636 h 0.00637 0.00637 v 0.00636 0.00636 z m 0.025462,0 h -0.00637 v -0.00636 -0.00636 h 0.00637 0.00637 v 0.00636 0.00636 z m 0.025462,0 h -0.00637 v -0.00636 -0.00636 h 0.00637 0.00637 v 0.00636 0.00636 z M 1.5918162,4.4410331 h -0.00637 v -0.00636 -0.00636 h 0.00637 0.00637 v 0.00636 0.00636 z m 4.7372509,-0.04243 -0.00849,0.00849 V 4.3901196 4.373148 l 0.00849,0.00848 0.00849,0.00848 z M 6.1805669,4.1564099 H 6.0596422 l 0.060462,-0.00477 0.060462,-0.00477 0.060459,0.00477 0.060462,0.00477 z m 0.1400162,0.00459 h -0.016975 l 0.00849,-0.00849 0.00849,-0.00848 0.00849,0.00848 0.00849,0.00849 z m 0.3500425,-0.038187 h -0.00637 v -0.00636 -0.00636 h 0.00637 0.00637 v 0.00636 0.00636 z M 2.2409866,3.8045905 h -0.00637 v -0.00636 -0.00636 h 0.00637 0.00637 v 0.00636 0.00636 z m 3.7962023,-0.079939 -0.00478,0.060846 -4.83e-5,-0.1145597 -4.81e-5,-0.1145596 0.00486,0.053713 0.00486,0.053713 z M 6.0364476,3.533042 6.0279576,3.541522 V 3.52455 3.507578 l 0.00849,0.00848 0.00849,0.00849 z M 1.5792293,3.524562 h -0.00637 v -0.00636 -0.00636 h 0.00637 0.00637 v 0.00636 0.00636 z m 4.1400329,-0.2378449 -0.00382,0.2187515 7.5e-6,-0.4455099 7.3e-6,-0.4455094 0.00378,0.226758 0.00378,0.2267579 z M 2.2188335,3.2731626 2.215011,3.4927353 V 3.0535901 2.6144449 l 0.00382,0.2195724 0.00382,0.2195728 z M 0.48331313,3.1808786 H 0.32462777 l 0.003711,-0.1495639 0.003711,-0.149564 0.15274766,-0.00636 0.152744,-0.00636 0.001482,-0.3054925 0.001482,-0.3054925 -0.15414502,-0.00697 -0.15414508,-0.00697 0.30867555,-0.0026 0.3086755,-0.0026 V 1.9359663 1.6330198 L 0.9648372,1.6177454 0.98010755,1.602471 H 3.9695834 6.9590679 l -0.00778,0.012583 -0.00778,0.012583 0.019755,-0.00758 0.019756,-0.00758 v 0.3132188 0.3132188 l 0.3150393,0.0026 0.3150393,0.0026 -0.1568617,0.00697 -0.1568656,0.00697 7.413e-4,0.3054925 7.414e-4,0.3054925 0.1534852,0.0036 0.1534853,0.0036 -0.00371,0.1491692 -0.00371,0.1491687 -0.1550975,0.00356 -0.1551013,0.00355 L 7.2903979,3.0317251 7.2905906,2.8817758 6.977738,2.8783657 6.6648854,2.8749555 6.6634032,2.7574362 6.661921,2.6399167 6.660071,2.6017297 6.6582211,2.5635427 6.505477,2.5571793 6.3527293,2.5508159 6.3490182,2.3948874 6.3453072,2.2389592 H 6.1865897 6.0278711 V 2.0875721 1.936188 L 6.0077456,1.928465 5.9876201,1.920742 H 3.9456773 1.9037385 V 2.0798428 2.2389536 H 1.7446306 1.5855191 V 2.3976723 2.556391 l -0.1559278,0.00356 -0.1559278,0.00355 -0.00185,0.019096 -0.00185,0.019091 -0.00148,0.1366126 -0.00148,0.1366127 -0.31285636,0.00341 -0.3128526,0.00341 1.4455e-4,0.1495644 1.4455e-4,0.1495638 z m 0.72677837,0 h -0.00637 v -0.00636 -0.00636 h 0.00637 0.00637 v 0.00636 0.00636 z m 0.031838,0 h -0.016975 l 0.00849,-0.00849 0.00849,-0.00849 0.00849,0.00849 0.00849,0.00849 z m 2.714426,-0.00311 -1.4160853,0.00322 V 3.0296728 2.8783558 l 0.022275,-0.00467 0.022275,-0.00467 1.397394,0.0033 1.3973939,0.0033 -0.00371,0.1494528 -0.00371,0.1494522 z M 2.5720934,3.168163 h 0.00637 v -0.00636 -0.00636 h -0.00637 -0.00637 v 0.00636 0.00636 z m 4.1008118,-0.2460922 -0.00849,0.00848 V 2.91358 2.8966083 l 0.00849,0.00848 0.00849,0.00849 z m -5.0438062,-0.034947 -0.024388,-10e-4 0.016716,-0.00669 0.016715,-0.00669 0.00771,0.00769 0.00767,0.00769 z m 0.1538041,-0.00459 -0.1272886,7.783e-4 0.1236822,-0.0044 0.1236786,-0.0044 0.00434,-0.1363791 0.00434,-0.1363793 -7.413e-4,0.1400174 -7.412e-4,0.1400171 z m 4.2577997,0.00559 h -0.016975 l 0.00849,-0.00849 0.00849,-0.00848 0.00849,0.00848 0.00849,0.00849 z m 0.1654754,-0.00471 H 6.0725255 l 0.066827,-0.00467 0.066827,-0.00467 0.066826,0.00467 0.066827,0.00467 z m -4.6778524,-0.02075 h -0.00637 v -0.00636 -0.00636 h 0.00637 0.00637 v 0.00636 0.00636 z m 0.050918,0 h -0.00637 v -0.00636 -0.00636 h 0.00637 0.00637 v 0.00636 0.00636 z m 4.4453727,-0.054482 -0.00478,0.060846 -4.81e-5,-0.1145596 -4.83e-5,-0.1145594 0.00486,0.053713 0.00486,0.053713 z m 0.327945,0.054482 h -0.00637 v -0.00636 -0.00636 h 0.00637 0.00637 v 0.00636 0.00636 z M 6.021611,2.6335491 h -0.00637 v -0.00636 -0.00636 h 0.00637 0.00637 v 0.00636 0.00636 z M 1.5028703,2.6208212 h -0.00637 v -0.00636 -0.00636 h 0.00637 0.00637 v 0.00636 0.00636 z m 0.7149366,-0.016972 -0.00849,0.00849 v -0.016972 -0.016972 l 0.00849,0.00849 0.00849,0.00848 z m 3.499895,-0.01126 -0.00649,0.021867 0.0026,-0.025459 0.0026,-0.025459 0.1398681,-6.3e-4 0.1398643,-6.301e-4 -0.1359801,0.00421 -0.1359837,0.00421 z m -3.6573573,-0.022624 -0.1553422,0.0063 0.010041,-0.00999 0.010041,-0.00999 0.145309,0.00367 0.1453053,0.00367 z m 0.4990209,0.012669 h -0.00637 v -0.00636 -0.00636 h 0.00637 0.00637 v 0.00636 0.00636 z m 2.8130751,0 h -0.00637 v -0.00636 -0.00636 h 0.00637 0.00637 v 0.00636 0.00636 z m 0.6491704,0 h -0.00637 v -0.00636 -0.00636 h 0.00637 0.00637 v 0.00636 0.00636 z M 0.06450972,2.2389551 h -0.0063745 v -0.00636 -0.00636 h 0.0063745 0.0063745 v 0.00636 0.00636 z m 0.22911787,0 h -0.006375 v -0.00636 -0.00636 h 0.006375 0.006375 v 0.00636 0.00636 z M 7.6127155,1.6025132 h -0.00637 v -0.00636 -0.00636 h 0.00637 0.00637 v 0.00636 0.00636 z"
       id="path17" /><path
       style="fill:#b6bbc8;stroke-width:0.0481089"
       d="M 0.00380644,7.0027218 4.7430091e-4,7.6423466 V 6.3630972 5.0838477 L 0.00380644,5.7234727 0.00713859,6.3630972 Z M 3.9656621,7.6296982 H 0.01335777 l 1.97615403,-0.00327 1.9761503,-0.00327 1.976154,0.00327 1.976154,0.00327 z M 7.9338779,7.0027218 7.9305457,7.6423466 V 6.3630972 5.0838477 l 0.00333,0.639625 0.00333,0.6396245 z M 3.9662774,7.3177608 H 0.32671453 l -0.005929,-0.00955 -0.005929,-0.00955 0.16268828,0.00387 0.16268824,0.00387 -1.4455e-4,-0.022961 -1.4456e-4,-0.022961 0.001853,-0.1304467 0.001853,-0.1304467 3.32540936,-0.00319 3.3254131,-0.00322 V 6.2039886 5.4147998 l -0.1559311,-0.00356 -0.1559278,-0.00356 -0.00148,-0.1364433 -0.00148,-0.1364433 -0.00185,-0.019091 -0.00185,-0.019091 -0.1555423,-0.00356 -0.1555386,-0.00355 -0.00371,-0.1555397 -0.00371,-0.1555399 -0.015901,-0.00159 -0.015901,-0.00159 L 6.486026,4.7736316 6.3464027,4.7720416 6.3426927,4.6161135 6.3389827,4.460185 6.2053302,4.457595 6.0716779,4.455005 6.0497729,4.454412 6.0279049,4.453819 6.0241949,4.2978905 6.0204849,4.1419619 5.8677409,4.1402219 5.7149932,4.1384819 5.7086132,3.9841404 5.7022432,3.829799 3.6401676,3.826799 1.5780959,3.823799 1.8994991,3.820359 2.2209023,3.816919 V 3.6647414 3.5125941 l -0.162292,-0.00355 -0.1622954,-0.00355 h 2.0684394 2.0684393 l -0.1622954,0.00355 -0.1622916,0.00355 V 3.6728236 3.833053 l 0.3150393,-0.00577 0.3150394,-0.00577 -0.1559278,0.00466 -0.1559314,0.00466 v 0.1573502 0.1573507 l 0.032839,0.00824 0.032839,0.00824 0.1199203,-0.00204 0.1199202,-0.00204 v -0.011197 -0.011197 l 0.1686555,0.00277 0.1686592,0.00277 -0.1622953,0.00398 -0.1622917,0.00398 v 0.1523712 0.1523656 l 0.1559278,6.671e-4 0.1559278,6.673e-4 0.1591116,0.00182 0.1591115,0.00182 -0.1559277,0.00425 -0.1559316,0.00425 v 0.152344 0.1523659 h 0.159111 0.1591116 v 0.1591109 0.1591105 h 0.3114775 0.3114738 l 0.00397,-0.1622929 0.00397,-0.1622927 0.0026,0.168657 0.0026,0.1686573 h -0.00956 -0.00956 l 0.00296,1.1074099 0.00296,1.1074101 z M 1.5917347,7.305033 h 0.00637 v -0.00636 -0.00636 h -0.00637 -0.00637 v 0.00636 0.00636 z m 2.8512621,0 h 0.00637 v -0.00636 -0.00636 h -0.00637 -0.00637 v 0.00636 0.00636 z m 3.08038,-2.1893619 h 0.00637 v -0.00636 -0.00636 h -0.00637 -0.00637 v 0.00636 0.00636 z m 0.038187,0 h 0.00637 v -0.00636 -0.00636 h -0.00637 -0.00637 v 0.00636 0.00636 z M 6.963308,4.8356365 h 0.00637 v -0.00636 -0.00636 h -0.00637 -0.00637 v 0.00636 0.00636 z m 0,-0.038187 h 0.00637 v -0.00636 -0.00636 h -0.00637 -0.00637 v 0.00636 0.00636 z M 6.6450849,4.6956191 h 0.00637 v -0.00636 -0.00636 h -0.00637 -0.00637 v 0.00636 0.00636 z m 0.00223,-0.1824471 0.00849,-0.00849 -0.00849,-0.00848 -0.00849,-0.00849 V 4.504684 4.521656 Z M 6.3651524,4.479229 h 0.00637 v -0.00636 -0.00636 h -0.00637 -0.00637 v 0.00636 0.00636 z m 0.1909309,0 h 0.00637 v -0.00636 -0.00636 h -0.00637 -0.00637 v 0.00636 0.00636 z m 0.038187,0 h 0.00637 v -0.00636 -0.00636 h -0.00637 -0.00637 v 0.00636 0.00636 z m 0.025462,0 h 0.00637 v -0.00636 -0.00636 h -0.00637 -0.00637 v 0.00636 0.00636 z m 0.025462,0 h 0.00637 v -0.00636 -0.00636 h -0.00637 -0.00637 v 0.00636 0.00636 z m -0.3160994,-0.080617 0.00849,-0.00848 -0.00849,-0.00848 -0.00849,-0.00848 V 4.390144 4.407116 Z M 2.2410163,3.8045998 h 0.00637 v -0.00636 -0.00636 h -0.00637 -0.00637 v 0.00636 0.00636 z M 0.35714769,7.2795756 h -0.006375 v -0.00636 -0.00636 h 0.006375 0.006375 v 0.00636 0.00636 z M 0.32212231,6.4362895 0.31879017,6.9931767 V 5.8794022 4.7656279 l 0.003332,0.5568872 0.003332,0.5568871 z m 2.22208029,0.2420724 -0.307786,0.00341 -0.00919,-0.014874 -0.00919,-0.014873 -0.00296,-0.9400121 -0.00296,-0.9400126 0.00797,-2.3e-5 0.00797,-2.34e-5 -0.00392,0.1591339 -0.00392,0.1591339 H 2.5391389 2.8580886 V 5.2493314 5.4084422 H 2.5398587 2.2216393 V 5.5675526 5.7266635 H 2.5391507 2.856666 l 0.00389,0.1622927 0.00389,0.1622929 -0.3214032,-0.0036 -0.3214032,-0.0036 V 6.2035882 6.363118 h 0.3186169 0.3186123 l -0.00371,0.1559285 -0.00371,0.1559285 z M 2.2664606,6.414014 h 0.00637 v -0.00636 -0.00636 h -0.00637 -0.00637 v 0.00636 0.00636 z M 2.2409977,6.0321485 h 0.00637 v -0.00636 -0.00636 h -0.00637 -0.00637 v 0.00636 0.00636 z m 0.025462,-0.012728 h 0.00637 v -0.00636 -0.00636 h -0.00637 -0.00637 v 0.00636 0.00636 z m 0.012713,-0.2673059 h 0.00637 v -0.00636 -0.00636 h -0.00637 -0.00637 v 0.00636 0.00636 z M 3.494113,6.681321 H 3.1907896 l -0.00889,-0.014377 -0.00889,-0.014377 -0.00148,-0.9434687 -0.00148,-0.9434688 0.00371,0.1622929 0.00371,0.1622931 0.3146577,2.22e-5 0.3146613,2.23e-5 0.00419,0.1622705 0.00419,0.1622705 -0.3192165,-0.0036 -0.3192164,-0.0036 v 0.1599626 0.1599629 l 0.3166109,-0.0036 0.3166146,-0.0036 7.412e-4,0.165475 7.413e-4,0.1654751 -0.3174485,-0.0036 -0.3174522,-0.0036 V 6.2040395 6.364002 l 0.3182305,-0.0036 0.3182306,-0.0036 -7.4e-6,0.00955 -1.12e-5,0.00955 -0.015901,1.975e-4 -0.015901,1.973e-4 0.014047,0.00935 0.014047,0.00935 0.0026,0.097475 0.0026,0.097476 -0.00856,0.045724 -0.00856,0.045724 z M 3.7557174,5.7521149 h 0.00637 v -0.00636 -0.00636 h -0.00637 -0.00637 v 0.00636 0.00636 z M 3.2211078,5.1156727 h 0.00637 v -0.00636 -0.00636 h -0.00637 -0.00637 v 0.00636 0.00636 z M 4.4430784,6.681321 H 4.1312191 l -7.414e-4,-0.00955 -7.412e-4,-0.00955 -0.00223,-0.136818 -0.00223,-0.1368176 0.012713,-0.00538 0.012712,-0.00538 -0.015901,-10e-4 -0.015901,-0.001 -1.12e-5,-0.00955 -1.11e-5,-0.00955 0.3182306,0.0036 0.3182343,0.0036 V 6.2039653 6.0440023 l -0.3182343,0.0036 -0.3182306,0.0036 1.11e-5,-0.00955 1.12e-5,-0.00955 0.015901,-1.972e-4 0.015901,-1.972e-4 -0.012712,-0.00935 -0.012713,-0.00935 V 5.8984409 5.7838812 l 0.012713,-0.00935 0.012712,-0.00935 -0.015901,-1.972e-4 -0.015901,-1.975e-4 V 5.7456924 5.7265971 H 4.4371333 4.7553565 V 5.5670604 5.4075238 l -0.3150395,0.0036 -0.3150393,0.0036 V 5.2524206 5.0901275 l 0.3146577,4e-7 0.3146576,3e-7 0.00371,-0.1622927 0.00371,-0.1622928 -0.00111,0.8019173 -0.00111,0.8019177 -0.00185,0.1559281 -0.00185,0.1559285 z m 0.9511669,-0.00296 -0.3089869,0.00341 -0.00567,-0.016138 -0.00567,-0.016138 -0.00371,-0.1463817 -0.00371,-0.1463819 h 0.3245997 0.3245871 l -0.00638,0.1591107 -0.00638,0.1591105 z m 0.334446,-0.2898088 h -0.00637 v -0.00636 -0.00636 h 0.00637 0.00637 v 0.00636 0.00636 z m -1.9220555,-0.05092 h -0.00637 v -0.00636 -0.00636 h 0.00637 0.00637 v 0.00636 0.00636 z m 0.3182194,0 h -0.00637 v -0.00636 -0.00636 h 0.00637 0.00637 v 0.00636 0.00636 z M 3.8087002,6.200797 3.8022902,6.216709 V 6.184886 6.153063 l 0.00641,0.015912 0.00641,0.015912 z m -7.413e-4,-0.057545 -0.00771,0.00769 0.00111,-0.024396 0.00111,-0.024395 0.00668,0.016709 0.00668,0.016709 z m -0.00148,-0.060197 h -0.00637 v -0.00636 -0.00636 h 0.00637 0.00637 v 0.00636 0.00636 z m 0.3182195,0 h -0.00637 v -0.00636 -0.00636 h 0.00637 0.00637 v 0.00636 0.00636 z m 1.5879246,1.04e-5 -0.00333,-1.04e-5 V 6.063545 6.04403 l -0.3233824,0.0036 -0.3233825,0.0036 0.00656,-0.010565 0.00656,-0.010565 -0.00185,-0.1513037 -0.00185,-0.1513037 0.3219778,-0.0036 0.3219814,-0.0036 V 5.9016862 6.0830828 Z M 5.143004,6.0321399 h 0.00637 v -0.00636 -0.00636 h -0.00637 -0.00637 v 0.00636 0.00636 z m 0.01275,-0.254577 h 0.00637 v -0.00636 -0.00636 h -0.00637 -0.00637 v 0.00636 0.00636 z M 5.092108,5.7521038 h 0.00637 v -0.00636 -0.00636 h -0.00637 -0.00637 v 0.00636 0.00636 z m 0.038187,0 h 0.00637 v -0.00636 -0.00636 h -0.00637 -0.00637 v 0.00636 0.00636 z M 4.0992589,5.739376 h -0.00637 v -0.00636 -0.00636 h 0.00637 0.00637 v 0.00636 0.00636 z m -0.2906995,-0.1113771 -0.00641,0.015912 v -0.031824 -0.031823 l 0.00641,0.015912 0.00641,0.015912 z m -7.413e-4,-0.095732 -0.00771,0.00769 0.00111,-0.024396 0.00111,-0.024396 0.00668,0.016709 0.00668,0.016709 z m -0.00148,-0.047468 h -0.00637 v -0.00636 -0.00636 h 0.00637 0.00637 v 0.00636 0.00636 z m 0.3182194,0 h -0.00637 v -0.00636 -0.00636 h 0.00637 0.00637 v 0.00636 0.00636 z m 1.5883657,0 h -0.00371 v -0.038606 -0.038605 l -0.3214031,0.0036 -0.3214033,0.0036 0.00389,-0.1622928 0.00389,-0.1622927 0.3206991,6.74e-5 0.3206953,6.71e-5 3.706e-4,0.1972314 3.707e-4,0.1972307 z m -1.5862419,-0.0297 -0.00849,0.00849 V 5.44662 5.4296484 l 0.00849,0.00848 0.00849,0.00848 z m -0.3203436,-0.00849 h -0.00637 v -0.00636 -0.00636 h 0.00637 0.00637 v 0.00636 0.00636 z m -3.16312134,-0.349685 -0.31185558,3.558e-4 0.3086755,-0.00377 0.3086755,-0.00377 V 4.9308702 4.7719859 H 1.1078174 1.266929 V 4.6201711 4.4683582 l -0.022275,-0.00547 -0.022275,-0.00547 0.1865611,-0.00501 0.1865648,-0.00501 -0.00593,0.00955 -0.00593,0.00955 H 1.4320445 1.2804421 l -0.00371,0.1559286 -0.00371,0.1559282 -0.1555386,0.00356 -0.15554234,0.00355 -0.003707,0.1555393 -0.003707,0.1555397 z m 5.07451354,-0.079909 -0.00641,0.015912 v -0.031824 -0.031823 l 0.00641,0.015912 0.00641,0.015912 z m -1.9087755,-0.050916 -0.00553,0.02864 V 4.937458 4.8801786 l 0.00553,0.02864 0.00553,0.02864 z m -3.706e-4,-0.096527 -0.00849,0.00848 v -0.016972 -0.016972 l 0.00849,0.00849 0.00849,0.00848 z m -0.9504241,-0.08486 h -0.016975 l 0.00849,-0.00849 0.00849,-0.00848 0.00849,0.00848 0.00849,0.00849 z m 0.2736686,0 h -0.00637 v -0.00636 -0.00636 h 0.00637 0.00637 v 0.00636 0.00636 z m 0.675382,0 h -0.00559 l -0.00908,-0.014696 -0.00908,-0.014696 0.014677,0.00908 0.014677,0.00908 v 0.00562 0.00562 z m 0.3174707,0 h -0.00637 v -0.00636 -0.00636 h 0.00637 0.00637 v 0.00636 0.00636 z m 0.954662,0 h -0.00637 v -0.00636 -0.00636 h 0.00637 0.00637 v 0.00636 0.00636 z m 0.6300788,0 h -0.016975 l 0.00849,-0.00849 0.00849,-0.00848 0.00849,0.00848 0.00849,0.00849 z M 3.831917,4.7592529 h -0.00637 v -0.00636 -0.00636 h 0.00637 0.00637 v 0.00636 0.00636 z M 2.2535401,4.7465252 h -0.00637 v -0.00636 -0.00636 h 0.00637 0.00637 v 0.00636 0.00636 z m 0.5727965,0 h -0.00637 v -0.00636 -0.00636 h 0.00637 0.00637 v 0.00636 0.00636 z m 2.8512621,0 h -0.00637 v -0.00636 -0.00636 h 0.00637 0.00637 v 0.00636 0.00636 z m -4.5951144,-0.2847963 -0.14001628,-5.23e-5 0.0736571,-0.0046 0.073653,-0.0046 0.066363,0.00466 0.066363,0.00466 z m 0.5122896,-0.1698716 -0.00405,0.1428108 -0.0026,-0.142819 -0.0026,-0.1428194 -0.1622954,-0.00398 -0.1622915,-0.00398 0.3245869,-1.42e-5 0.3245833,-1.43e-5 -0.1555126,0.004 -0.1555164,0.004 z M 0.00370637,3.1967875 0,3.5181911 V 2.8753844 2.2325775 L 0.00371105,2.5539807 0.0074221,2.8753844 Z m 1.59110833,0.00405 -0.00371,0.317357 -0.00296,-0.3214033 -0.00296,-0.3214036 H 1.4260703 1.2669587 V 3.0345005 3.193611 l -0.47415097,-0.0026 -0.47414728,-0.0026 0.16137623,-0.00695 0.16137988,-0.00695 -3.335e-5,-0.1463816 -3.707e-5,-0.146382 0.31280812,-0.00341 0.31280444,-0.00341 0.00148,-0.1366127 0.00148,-0.1366127 0.00185,-0.019091 L 1.2736187,2.56352 1.4295464,2.55997 1.5854742,2.55642 V 2.3976916 2.2389728 H 1.7445973 1.9037089 V 2.079862 1.9207516 h 2.0419387 2.0419386 l 0.020125,0.00772 0.020125,0.00772 v 0.1513841 0.1513844 h 0.1591079 0.1591115 v 0.1587188 0.1587186 l 0.1559278,0.00355 0.1559279,0.00356 0.00185,0.038187 0.00185,0.038187 0.00148,0.1175195 0.00148,0.1175192 0.3128081,0.00341 0.3128044,0.00341 -3.71e-5,0.1463819 -3.33e-5,0.1463817 0.1613799,0.00695 0.1613799,0.00695 -0.4750998,0.0026 -0.4750961,0.0026 0.00185,-0.1431993 0.00185,-0.1431996 -0.00111,-0.015912 -0.00111,-0.015912 H 6.5050612 6.3459533 l -0.00296,0.3214036 -0.00296,0.3214033 -0.00371,-0.317357 -0.00371,-0.3173577 0.00978,-0.00973 0.00978,-0.00973 -0.00393,-0.154128 -0.00393,-0.1541276 -0.1615318,0.00388 -0.1615356,0.00388 0.00389,-0.1622928 0.00389,-0.1622927 H 3.9655509 1.9020595 l 0.00389,0.1622927 0.00389,0.1622928 -0.1615317,-0.00388 -0.1615356,-0.00388 -0.00393,0.1541276 -0.00393,0.154128 0.00978,0.00973 0.00978,0.00973 z M 1.2097728,3.1808735 h 0.00637 v -0.00636 -0.00636 h -0.00637 -0.00637 v 0.00636 0.00636 z m 0.031838,0 h 0.016975 l -0.00849,-0.00849 -0.00849,-0.00849 -0.00849,0.00849 -0.00849,0.00849 z m 0.2864,-0.3182193 h 0.00637 v -0.00636 -0.00636 h -0.00637 -0.00637 v 0.00636 0.00636 z M 1.5025479,2.6208069 h 0.00637 v -0.00636 -0.00636 h -0.00637 -0.00637 v 0.00636 0.00636 z M 7.933789,3.1967872 7.9300779,3.5181905 V 2.8753836 2.2325768 l 0.00371,0.3214036 0.00371,0.3214032 z m -3.9713922,-0.00631 -1.428813,-0.00311 1.4224491,-0.0033 1.4224491,-0.0033 V 3.0280771 2.8753861 l -1.3906261,-0.00196 -1.390626,-0.00196 -0.028651,0.00245 -0.028651,0.00245 V 2.7167576 2.5571652 H 3.9655583 5.3911912 V 2.8753866 3.1936078 Z M 2.559043,2.5826208 h 0.00637 v -0.00636 -0.00636 h -0.00637 -0.00637 v 0.00636 0.00636 z m 2.8130752,0 h 0.00637 v -0.00636 -0.00636 h -0.00637 -0.00637 v 0.00636 0.00636 z M 2.5717707,3.1681476 h -0.00637 v -0.00636 -0.00636 h 0.00637 0.00637 v 0.00636 0.00636 z M 7.6155362,2.7449135 7.6114961,2.8944774 V 2.5953496 2.2962214 l 0.00405,0.1495639 0.00405,0.1495643 z M 0.32193698,2.560345 0.31822593,2.8817485 V 2.2389417 1.5961349 l 0.003711,0.3214036 0.003711,0.3214032 z M 6.0212885,2.8753839 h -0.00637 v -0.00636 -0.00636 h 0.00637 0.00637 v 0.00636 0.00636 z m 0,-0.2291189 h -0.00637 v -0.00636 -0.00636 h 0.00637 0.00637 v 0.00636 0.00636 z m 0.00148,-0.028906 -0.00771,0.00769 0.00111,-0.024396 0.00111,-0.024395 0.00668,0.016704 0.00668,0.016709 z M 1.9121459,2.603834 1.9036559,2.612314 V 2.595342 2.57837 l 0.00849,0.00848 0.00849,0.00849 z m 0.30337,-0.033943 h -0.00637 v -0.00636 -0.00636 h 0.00637 0.00637 v 0.00636 0.00636 z m 3.5004362,0 h -0.00637 v -0.00636 -0.00636 h 0.00637 0.00637 v 0.00636 0.00636 z m 1.8987202,-0.2842778 -0.00849,0.00849 v -0.016972 -0.016972 l 0.00849,0.00849 0.00849,0.00848 z m 0.00111,-0.1891208 -0.00397,0.1615416 1.1e-5,-0.3309498 1.49e-5,-0.3309501 0.00397,0.1694086 0.00397,0.1694083 z m -6.97537972,-0.1662263 -0.003707,0.315039 -1.9273e-4,-0.483696 -1.9273e-4,-0.4836964 0.003966,0.1622928 0.003966,0.1622927 h 0.15309239 0.15309241 l -0.003892,-0.1591337 -0.003928,-0.1591339 3.01991768,2.34e-5 3.0199211,2.3e-5 v 0.1591109 0.1591105 h 0.1591108 0.1591079 l -0.00296,0.3214036 -0.00296,0.3214032 -0.00371,-0.315039 -0.00371,-0.315039 H 7.1284387 6.9695496 V 1.4561168 1.297006 H 3.9655397 0.96153368 V 1.4561168 1.6152272 H 0.80264449 0.64375529 Z m 6.31033902,-0.30231 h -0.00637 v -0.00636 -0.00636 h 0.00637 0.00637 v 0.00636 0.00636 z M 7.2974797,1.516579 7.2929552,1.5961347 V 1.4370233 1.2779128 l 0.00452,0.079556 0.00452,0.079555 z M 6.9793826,0.9883714 6.9760505,0.98521756 3.9593128,0.97877617 0.94257536,0.97233477 3.962493,0.96918093 6.9824143,0.9660271 V 0.978755 0.9914829 Z"
       id="path16" /><path
       style="fill:#040505;stroke-width:0.0481089"
       d="M 3.9656621,7.6296177 H 0.00699025 V 6.3599149 5.0902123 h 0.15274774 0.15274763 l 0.001112,0.8942017 0.001112,0.8942015 0.005895,0.2163904 0.005895,0.2163906 3.63990018,0.00319 3.6398965,0.00319 0.00333,-1.1106139 0.00333,-1.1106139 0.1559278,-0.00356 0.1559278,-0.00356 V 6.3595216 7.6296163 Z M 2.5400329,6.3630972 H 2.2218098 V 6.2039868 6.0448759 h 0.3182231 0.3182195 v 0.1591109 0.1591104 z m 0.951482,-0.00296 -0.3150394,0.00341 V 6.2039863 6.0444308 l 0.31445,0.00341 0.3144501,0.00341 7.413e-4,0.1527461 7.412e-4,0.1527463 z m 0.9522306,0.00296 H 4.1326423 l -0.00634,-0.010264 -0.00634,-0.010264 0.00223,-0.1456706 0.00223,-0.1456704 0.3150394,-0.00341 0.3150394,-0.00341 V 6.203741 6.3630739 Z m 0.9475495,0 H 5.0730756 V 6.2039868 6.0448759 H 5.391295 5.7095144 V 6.2039868 6.3630972 Z M 2.5400329,5.7266546 H 2.2218098 V 5.5675442 5.4084337 h 0.3182231 0.3182195 v 0.1591105 0.1591104 z m 0.951482,-0.00296 -0.3150394,0.00341 V 5.5675442 5.4079885 l 0.3147355,0.00341 0.3147317,0.00341 2.891e-4,0.1527463 2.891e-4,0.1527462 z m 0.9439468,0.00296 H 4.1160674 l 0.00441,-0.1559282 0.00441,-0.1559285 0.3149875,-0.00341 0.3149837,-0.00341 V 5.5673108 5.726644 Z m 0.9558333,0 H 5.0730756 V 5.5675442 5.4084337 H 5.391295 5.7095144 V 5.5675442 5.7266546 Z M 0.63706896,5.0902123 H 0.3252134 V 4.9311015 4.7719911 H 0.63706896 0.94892825 V 4.6200387 4.4680868 l 0.13847815,-0.00398 0.1384818,-0.00398 0.020645,0.00411 0.020645,0.00411 V 4.620174 4.771987 H 1.1080658 0.94895791 v 0.1591104 0.1591109 z m 1.90296394,0 H 2.2210277 l 0.00371,-0.1559285 0.00371,-0.1559285 H 2.540296 2.8521553 l 0.00371,0.1559285 0.00371,0.1559285 z m 0.9529533,0 H 3.1764755 V 4.9308791 4.7715463 l 0.3145093,0.00341 0.3145131,0.00341 0.00185,0.1559286 0.00185,0.1559281 z m 0.9432538,0 H 4.1176277 l 0.00371,-0.1559285 0.00371,-0.1559285 0.3150393,-0.00341 0.3150394,-0.00341 v 0.1593332 0.1593329 z m 0.955055,0 H 5.0722898 l 0.00371,-0.1559285 0.00371,-0.1559285 h 0.3118463 0.3118555 l 0.00371,0.1559285 0.00371,0.1559285 z m 1.9029639,0 H 6.9823996 V 4.9311015 4.7719911 H 6.8236809 6.6649623 L 6.6612559,4.6160625 6.6575494,4.4601343 6.5016217,4.4565762 6.3456939,4.453018 V 4.3006636 4.1483091 H 6.5048055 6.663917 V 4.30742 4.4665305 H 6.8230249 6.9821365 V 4.6192767 4.772023 H 7.293992 7.6058513 V 4.9311334 5.0902442 Z M 1.4262593,4.4537697 H 1.2671477 V 4.3010236 4.1482773 H 1.4262593 1.5853708 V 4.3010236 4.4537697 Z M 6.1836654,4.1454872 6.0277375,4.1490453 V 3.989543 3.8300409 H 5.868626 5.7095144 V 3.67093 3.5118195 H 3.9656621 2.2218098 V 3.6645658 3.817312 H 2.0627019 1.9035903 V 3.6645658 3.5118195 H 2.0627019 2.2218098 V 3.0344873 2.5571556 H 2.0627019 1.9035903 V 2.7162664 2.8753769 H 1.7444787 1.5853708 V 3.1935982 3.5118195 H 0.79618055 0.00699025 V 2.8753769 2.2389343 h 0.15274774 0.15274763 l 3.343e-5,0.2386663 3.7e-5,0.2386658 0.008336,0.2386659 0.008336,0.2386659 H 0.7981825 1.2671371 V 3.0344873 2.8753769 H 1.4262487 1.5853603 V 2.7162664 2.5571556 H 1.7444751 1.9035866 V 2.3980452 2.2389343 h 2.0620718 2.0620755 v 0.1591109 0.1591104 h 0.1591115 0.1591079 v 0.1591108 0.1591105 h 0.1591116 0.1591116 v 0.1591104 0.1591109 h 0.469177 0.4691806 l 0.00908,-0.2704882 0.00908,-0.2704878 -0.00296,-0.2036617 -0.00296,-0.2036616 0.1547824,-0.00355 0.1547789,-0.00356 V 2.875017 3.5118514 H 7.1351399 6.3459497 V 3.1936301 2.8754088 H 6.1868418 6.0277302 V 2.7162983 2.5571875 H 5.8686186 5.709507 v 0.4773317 0.4773322 h 0.1591116 0.1591116 v 0.1591104 0.1591105 h 0.1595007 0.1595044 l -0.00371,0.1559285 -0.00371,0.1559286 z M 3.9656621,3.1936137 H 5.391295 V 2.8753925 2.5571712 H 3.9656621 2.5400329 V 2.8753925 3.1936137 Z M 1.7444787,4.1355485 H 1.5853708 V 3.9828022 3.8300563 H 1.7444787 1.9035903 V 3.9828022 4.1355485 Z M 0.4779611,2.2389499 H 0.3252134 V 1.920729 1.6025077 h 0.1527477 0.152744 V 1.920729 2.2389499 Z m 6.9754057,0 H 7.3006228 V 1.920729 1.6025077 H 7.1415112 6.9823996 V 1.4433971 1.2842864 H 3.9656621 0.94892454 V 1.1315139 0.97874095 l 3.01355746,0.003221 3.0135538,0.003221 0.00371,0.14956395 0.00371,0.1495639 h 0.1519508 0.1519509 l 0.00371,0.1559285 0.00371,0.1559281 0.1559278,0.00356 0.1559277,0.00355 V 1.9211203 2.2389499 Z M 0.79657342,1.6025077 H 0.64343284 V 1.4429932 1.2834784 l 0.14956392,0.0036 0.14956391,0.0036 0.003707,0.1559285 0.003707,0.1559281 z"
       id="path15" /><rect
       style="fill:#040505;fill-opacity:1;stroke-width:1.00012;stroke-linecap:round;stroke-linejoin:round;paint-order:markers stroke fill"
       id="rect1"
       width="0.33146626"
       height="0.3166633"
       x="0.62726545"
       y="4.455328" /><rect
       style="fill:#040505;fill-opacity:1;stroke-width:1.00012;stroke-linecap:round;stroke-linejoin:round;paint-order:markers stroke fill"
       id="rect3"
       width="0.33146626"
       height="0.3166633"
       x="0.95873171"
       y="4.1386647" /><rect
       style="fill:#040505;fill-opacity:1;stroke-width:1.00012;stroke-linecap:round;stroke-linejoin:round;paint-order:markers stroke fill"
       id="rect4"
       width="0.33146626"
       height="0.3166633"
       x="1.290198"
       y="3.8220015" /><rect
       style="fill:#040505;fill-opacity:1;stroke-width:1.00012;stroke-linecap:round;stroke-linejoin:round;paint-order:markers stroke fill"
       id="rect5"
       width="0.33146626"
       height="0.3166633"
       x="1.5818895"
       y="2.8729196" /><rect
       style="fill:#040505;fill-opacity:1;stroke-width:1.00012;stroke-linecap:round;stroke-linejoin:round;paint-order:markers stroke fill"
       id="rect7-88"
       width="0.33146626"
       height="0.3166633"
       x="1.9017205"
       y="2.5484662" /><rect
       style="fill:#040505;fill-opacity:1;stroke-width:2.17555;stroke-linecap:round;stroke-linejoin:round;paint-order:markers stroke fill"
       id="rect7-36"
       width="1.5684612"
       height="0.3166633"
       x="6.3582797"
       y="3.5032229" /><rect
       style="fill:#040505;fill-opacity:1;stroke-width:1.00012;stroke-linecap:round;stroke-linejoin:round;paint-order:markers stroke fill"
       id="rect7-49"
       width="0.33146626"
       height="0.3166633"
       x="6.3399754"
       y="3.8394821" /><rect
       style="fill:#040505;fill-opacity:1;stroke-width:3.64646;stroke-linecap:round;stroke-linejoin:round;paint-order:markers stroke fill"
       id="rect6"
       width="4.4063601"
       height="0.3166633"
       x="1.6216642"
       y="3.5053382" /><rect
       style="fill:#040505;fill-opacity:1;stroke-width:1.00012;stroke-linecap:round;stroke-linejoin:round;paint-order:markers stroke fill"
       id="rect7"
       width="0.33146626"
       height="0.3166633"
       x="6.0208778"
       y="3.517369" /><rect
       style="fill:#040505;fill-opacity:1;stroke-width:1.00012;stroke-linecap:round;stroke-linejoin:round;paint-order:markers stroke fill"
       id="rect7-97"
       width="0.33146626"
       height="0.3166633"
       x="5.6996017"
       y="2.5486288" /><rect
       style="fill:#040505;fill-opacity:1;stroke-width:1.00012;stroke-linecap:round;stroke-linejoin:round;paint-order:markers stroke fill"
       id="rect7-8"
       width="0.33146626"
       height="0.3166633"
       x="6.0316396"
       y="2.868572" /><rect
       style="fill:#040505;fill-opacity:1;stroke-width:1.00012;stroke-linecap:round;stroke-linejoin:round;paint-order:markers stroke fill"
       id="rect7-6"
       width="0.33146626"
       height="0.3166633"
       x="6.0297322"
       y="3.1848624" /><rect
       style="fill:#040505;fill-opacity:1;stroke-width:1.43373;stroke-linecap:round;stroke-linejoin:round;paint-order:markers stroke fill"
       id="rect7-3"
       width="0.33146626"
       height="0.65077126"
       x="7.6009974"
       y="1.599595" /><rect
       style="fill:#040505;fill-opacity:1;stroke-width:1.00012;stroke-linecap:round;stroke-linejoin:round;paint-order:markers stroke fill"
       id="rect7-2"
       width="0.33146626"
       height="0.3166633"
       x="7.2814054"
       y="1.2906784" /><rect
       style="fill:#040505;fill-opacity:1;stroke-width:1.00012;stroke-linecap:round;stroke-linejoin:round;paint-order:markers stroke fill"
       id="rect7-1"
       width="0.33146626"
       height="0.3166633"
       x="6.9793825"
       y="0.98837137" /><rect
       style="fill:#040505;fill-opacity:1;stroke-width:1.00012;stroke-linecap:round;stroke-linejoin:round;paint-order:markers stroke fill"
       id="rect7-4"
       width="0.33146626"
       height="0.3166633"
       x="0.64118552"
       y="0.97273648" /><rect
       style="fill:#040505;fill-opacity:1;stroke-width:1.00012;stroke-linecap:round;stroke-linejoin:round;paint-order:markers stroke fill"
       id="rect7-84"
       width="0.33146626"
       height="0.3166633"
       x="0.33824781"
       y="1.2890269" /><rect
       style="fill:#040505;fill-opacity:1;stroke-width:1.4161;stroke-linecap:round;stroke-linejoin:round;paint-order:markers stroke fill"
       id="rect7-60"
       width="0.33146626"
       height="0.63486135"
       x="0.00016237992"
       y="1.6013401" /><rect
       style="fill:#040505;fill-opacity:1;stroke-width:1.00012;stroke-linecap:round;stroke-linejoin:round;paint-order:markers stroke fill"
       id="rect7-9"
       width="0.33146626"
       height="0.3166633"
       x="6.6580009"
       y="4.1530399" /><rect
       style="fill:#040505;fill-opacity:1;stroke-width:1.00012;stroke-linecap:round;stroke-linejoin:round;paint-order:markers stroke fill"
       id="rect7-0"
       width="0.33146626"
       height="0.3166633"
       x="6.98103"
       y="4.4697032" /><rect
       style="fill:#040505;fill-opacity:1;stroke-width:1.00012;stroke-linecap:round;stroke-linejoin:round;paint-order:markers stroke fill"
       id="rect7-27"
       width="0.33146626"
       height="0.3166633"
       x="7.5978212"
       y="4.7799463" /><rect
       style="fill:#040505;fill-opacity:1;stroke-width:2.18757;stroke-linecap:round;stroke-linejoin:round;paint-order:markers stroke fill"
       id="rect7-94"
       width="1.5858413"
       height="0.3166633"
       x="-0.0021875692"
       y="3.5103126" /></g></svg>
