<?xml version="1.0" encoding="UTF-8" standalone="no"?>
<!-- Created with Inkscape (http://www.inkscape.org/) -->

<svg
   width="500"
   height="500"
   viewBox="0 0 132.29166 132.29167"
   version="1.1"
   id="svg1"
   xml:space="preserve"
   inkscape:version="1.4.2 (ebf0e940, 2025-05-08)"
   sodipodi:docname="logos_models.svg"
   xmlns:inkscape="http://www.inkscape.org/namespaces/inkscape"
   xmlns:sodipodi="http://sodipodi.sourceforge.net/DTD/sodipodi-0.dtd"
   xmlns="http://www.w3.org/2000/svg"
   xmlns:svg="http://www.w3.org/2000/svg"><sodipodi:namedview
     id="namedview1"
     pagecolor="#ffffff"
     bordercolor="#000000"
     borderopacity="0.25"
     inkscape:showpageshadow="2"
     inkscape:pageopacity="0.0"
     inkscape:pagecheckerboard="0"
     inkscape:deskcolor="#d1d1d1"
     inkscape:document-units="mm"
     inkscape:zoom="0.70710678"
     inkscape:cx="220.61731"
     inkscape:cy="295.57063"
     inkscape:window-width="1920"
     inkscape:window-height="1021"
     inkscape:window-x="0"
     inkscape:window-y="31"
     inkscape:window-maximized="0"
     inkscape:current-layer="layer1"
     inkscape:lockguides="true" /><defs
     id="defs1" /><g
     inkscape:label="Layer 1"
     inkscape:groupmode="layer"
     id="layer1"><path
       id="rect6-4-4-9"
       style="fill:#1a1a1a;fill-opacity:1;stroke:none;stroke-width:0.25115;paint-order:stroke markers fill"
       d="M 68.178517,1.7404836 45.740641,15.396324 v 10.70326 L 68.141975,12.465723 108.64438,37.116012 V 26.412997 L 68.221649,1.8111626 Z M 36.564761,20.9981 27.421952,26.562574 v 21.354373 l -0.01218,0.0061 V 58.62606 l 0.01218,-0.0061 v 32.164562 l -0.01218,0.0061 v 10.703018 l 0.01218,-0.006 v 30.09006 l 9.142809,-5.56444 V 95.92308 L 59.006578,82.264892 V 71.561604 L 36.564761,85.220097 V 53.055505 L 59.014249,39.392506 V 28.689765 L 36.564761,42.352749 Z m 31.592297,2.221705 -0.0061,95.243835 9.142792,5.56421 V 39.482513 l 22.161492,13.487732 v 70.502495 l 9.142778,5.56447 V 58.534718 l 2.8e-4,2.73e-4 V 47.831977 l -2.8e-4,-2.74e-4 v -0.155437 h -0.25516 z"
       sodipodi:nodetypes="ccccccccccccccccccccccccccccccccccccccccccc" /></g></svg>
